<?xml version="1.0" encoding="UTF-8"?>
<svg id="Layer_1" data-name="Layer 1" xmlns="http://www.w3.org/2000/svg" viewBox="0 0 1000 700">
  <defs>
    <style>
      .cls-1 {
        fill: none;
        stroke: #7dba6a;
        stroke-linecap: round;
        stroke-linejoin: round;
        stroke-width: 5px;
      }
    </style>
  </defs>
  <path class="cls-1" d="M885.65,635.69s-79.33.48-75.13-2.32c4.19-2.81-26.44-256.72-24.2-259.33,2.23-2.61,34.69,97.86,22.73,99.75-11.91,1.88-65.9,11.06-79.6-27.5-13.35-37.6,1.13-84.04,4.97-86.65,3.85-2.62,56.38,7.51,35.52,8.13-20.68.61-78.14-22.41-77.95-29.76.18-7.33,20.97-25.95,16.61-20.93-4.36,5.03-19.37-2.44-28.53-7.68-9.09-5.2-21.53-24.42-24.82-16.39-3.3,8.05-3.83,32.77,2.61,34.93,6.47,2.17,29.08,7,29.08,7,0,0,8.5-22.16,29.44-20.6,21.16,1.58,53.59,6.84,47.21,8.73-6.38,1.89-4.88-15.34-1.78-32.5,3.08-17.02,19.17-48.07,35.74-45.8,16.71,2.29.06,123.03-10.19,114.05-10.16-8.9,17.79-77.51,13.97-95.89-3.78-18.16-9.13-26.07-18.82-30.01-9.64-3.91-21.61-17.38-22.91-16.86-1.31.52-20.25,37.1-23.22,52.97-3,15.99-1.7,38.79-.28,39.2,1.42.4,21.29-22.04,20.49-29.76-.8-7.68-14.21-17.84-6.71-20.48,7.51-2.64,21.56-8.78,20.77-15.92-.78-7.11-13.89-27.17-15.29-27.52-1.4-.36-35.78,40.1-41.81,38.19-6.01-1.9-9.27-32.92-7.54-38.25,1.73-5.32,8.15-12.65,8.18-16.97.04-4.31-10.04-17.77-6.31-10.76,3.75,7.05,14.53,22.37,26.81,19.86,12.33-2.51,26.67-20.4,28.61-35.65,1.93-15.13-3.23-25.39-11.43-35.33-8.13-9.85-10.56-20.48-10.13-16.36.43,4.13-8.57,10.68-20.97,18.32-12.38,7.63-19.99,14.9-18.17,25.29,1.84,10.45,9.14,22.75,4.9,34.2-4.26,11.5-20.11,16.81-20.11,16.81,0,0,9.72-9.68,7.53-34.37-2.17-24.33-3.9-43.79,9.11-57.63,12.98-13.82,34.51-16.42,32.77-12.15-1.75,4.28-.34-3.27,10.18-3.32,10.57-.04,26.59,19.97,27.21,41.09.62,21.37-.31,45.29,5.12,61.17,5.5,16.06,13.55,21.85,8.19,19.47-5.33-2.37-18.02-9.17-21.38-19.1-3.35-9.87-1.4-8.68-3.9-2.39-2.5,6.3-27.12,49.4-30.37,48.68-3.24-.72-2.19-3.9-9.09-.42-6.89,3.48-11.12,1.48-11.45,7.74-.32,6.28-.08-15.56-7.05-13.41-6.96,2.14-12.29,12.63-11.95,1.09.34-11.47,11.11-40.02,8.68-32.49-2.43,7.55-11.47,20.76-13.44,34.08-1.98,13.4-4.68,56.25-5.02,52.18-.34-4.06-18.84-40.76-13.45-50.74,5.37-9.96,12.62-12.99,11.23-13.79-1.39-.8-9.02-2.55-5.1-8.44,3.91-5.88,19.39-15.49,13.87-12.99-5.51,2.5-25.7,1.99-27.2,5.1-1.5,3.12-4.93,38.25-.96,27.05,3.96-11.16.33-29.6-6.21-24.02-6.54,5.57-35.19,56.08-36.41,64.11-1.23,8.06,3.82,18.57,3.76,10.96-.06-7.58.35-1.35-9.03-18.68-9.25-17.09-11.63-28.27-11.85-24.79-.22,3.49-20.91,15.44-22.28,13.77-1.36-1.67-6.91-10.48-4.89-12.32,2.02-1.84,25.65-12.62,23.3-9.04-2.35,3.59-6.4-15.11-6.89-23.61-.48-8.46-17.36-33.8-19.17-28.69-1.81,5.13,11.95,20.22,8.66,13.68-3.28-6.51-25.75-33.59-27.77-33.04-2.02.55-4.01,1.92-3.93,3.56.07,1.64,29.01,33.86,29.01,33.86,0,0-9.66-9.05-12.7-3.41-3.05,5.65-8.1,13.12-6.14,19.35,1.97,6.25,12.99,16.72,13.12,19.29.13,2.57,24.56,81.68,37.54,86.64,13.08,5,50.42-43.48,51.6-51.3,1.17-7.79,3.19-19.74,1.17-7.79-2.03,12.01,5.86,52.81.68,79.48-5.23,26.99-28.78,98.98-17.12,108.64,11.78,9.75,37.87,9.55,43.38.24,5.5-9.28,7.84-128.61,4.75-114.86-3.11,13.84-3.17,65.28,10.1,68.25,13.36,2.99,19.72-2.97,17.49-6.81-2.22-3.83,8.95,63.71-1.52,60.45-10.41-3.24-14.12-9.84-10.41-3.24,3.73,6.63,23.17,24.65,18.11,25.35-5.05.7-19.28-1.95-11.48.04,7.83,2,14.47,4.69,19.76,20.34,5.34,15.81,30.17,117.59,27.91,108.08-2.25-9.45-31.61-41.39-33.98-38.6-2.37,2.8,1.56,40.03-3.72,39.91-5.28-.12-17.76-.4-20.01-4.05-2.25-3.63-32.71-98.62-38.41-116.15-5.63-17.33-3.78-34.53-1.09-23.32,2.7,11.28,15.55,73.02,10.88,78.5-4.68,5.49-224.99,1.84-224.99,1.84l1.42-18.42s169.52,2.09,209.01,2.63c23.62.33-12.68-5.09-15.51-5.24-53.52-3.05-182.24-2.18-188.05-5.25-.11-6.51-15.37-448.86-11.32-450.24,4.06-1.38,266.1.22,266.1.22,0,0,6.48,19.03.74,19.5-5.72.48-264.47-.4-263.5-3.58.97-3.18-1.09-4.03.97-3.18,2.07.86,12.11,463.6,12.23,470.24.12,6.66-13.14,57.69-7.34,51.01,5.79-6.68,9.76-46.99,20.25-49.52,10.53-2.54,94.42-4.27,92.17-.22-2.25,4.05-10.06,49.32-6.54,45.23,15.65-4.09,4.02-41.22,21.16-41,17.26.22,87.06-5.76,91.21-1.53,4.17,4.24,32.91,53.27-.97,55.36-33.46,2.06-559.79,4.54-559.79,4.54"/>
</svg>