<?xml version="1.0" encoding="UTF-8"?>
<svg id="Layer_1" data-name="Layer 1" xmlns="http://www.w3.org/2000/svg" viewBox="0 0 1000 700">
  <defs>
    <style>
      .cls-1 {
        fill: none;
        stroke: #24524b;
        stroke-linecap: round;
        stroke-linejoin: round;
        stroke-width: 5px;
      }
    </style>
  </defs>
  <path class="cls-1" d="M40.16,557.44s107.08-1.2,131.07-1.29c23.73-.09-13.71,17.22-10.67-2.06,3.5-22.15.63-96.63-1.4-102.65-2.03-6.02-53.63-96.74-43.8-105.51,9.83-8.78,60.68,108.17,72.31,110.48,11.62,2.31,85.23,16.47,90.76,28.92,5.52,12.42-21.98,89.73-17.64,92.81,4.34,3.08,32.24,5.12,33.15,3.45.91-1.67,1.19-4.95.91-1.67-.28,3.28,41.01,15.04,28.99,18.84-12.03,3.8-55.85.87-57.74-3.94-1.89-4.82-2.82-17.87,4.87-18.21,7.69-.34,24.18,7.66,27.99-3.95,3.81-11.62,27.13-91.46,15.7-108.06-11.46-16.63-73-44.67-75.15-45.69-2.15-1.03-27.85,24.37-41.88,31.57-14.03,7.21-50.8-64.25-55.44-83.66-4.65-19.44-20.32-45.3-8.86-53.58,11.46-8.28,34.29-5.14,38.5,2.03,4.21,7.16,24.8,44.52,34.34,46.41,9.53,1.88,52.35-4.14,53.02-1.94.68,2.21-.81,17.86,3.38,18.27,4.18.4,45.94-3.38,49.51-11.85,3.57-8.48-8-10.84-21.46-10.35-13.47.49-18.73-.43-13.47.49,5.26.92,21.03-11.36,13.26-11.08-7.77.28-35,12.43-37.6,19.78-2.6,7.34-.21,18.95-.21,18.95,0,0-58.24,15.56-69.71,8.74-11.49-6.82-50.71-53.54-43.71-65.03,7-11.49,34.4-10.2,25.19-7.07-9.21,3.14-35.1-12.28-27.18-18.75,7.92-6.47,14.1-15.15,16.32-13.53,2.23,1.62,22.28,16.7,31.53,14.13,9.25-2.57-29.77-.04-32.17-9.35-2.4-9.32.97-13.78.31-22.45-.66-8.68-16.29-23.05-12.42-43.17,3.88-20.16,17.09-11.1,18.16-14.78,1.08-3.68-2.62-12.31,16.08-11.07,18.67,1.24,38.65,25.33,31.31,26.29-7.34.96-21.13-2.95-21.35-1.5-.23,1.46,4.66,8.21-4.09,8.49-8.75.28-10.94-1.83-11.62,2.55-.68,4.38-.2,15.25-2.5,11.7-2.29-3.55-6.99-12.12-8.94-6.61-1.95,5.51,3.48,14.77.79,14.85-2.69.09-13.97-10.43-7.96-24.8,6.01-14.38,46.1-20.38,51.59-10.01,5.48,10.36-3.35,64.22-17.35,61.45-14.02-2.78-22.58-22.41-22.79-16.24-.21,6.16-5.25,19.72,7.51,23.62,12.75,3.9,23.36,6.42,24.74,2.41,1.38-4.02-1-8.99.58-5.8,1.58,3.2,18.19,5.15,23.37,11.82,5.18,6.67,31.84,60.98,23.15,51.63-8.7-9.37-29.54-51.77-24.5-33.23,5.03,18.51,15.98,35.68,7.51,29.54-8.48-6.15-30.33-43.15-24.87-23.89,5.44,19.21,48.18,69.16,42.88,78.98-5.29,9.82-19.85,29.6-12.96,14.39,6.9-15.23-2.55-21.29,28.06-12.82,30.52,8.43,71.28,22.82,82.87,47.84,11.56,24.93,39.92,96.35,35.42,102.83-4.49,6.48-23.34,4.16-22.99,9.38.35,5.22-2.46,22.08,6.5,23.77,8.95,1.69,63.16-9.07,57.75-17.18-5.41-8.12-36.93-9.88-41.83-9.66-4.9.21-19.34,5.03-25.99-6.21-6.67-11.25-29.42-55.56-27.95-63.01,1.47-7.46-1.53-36.98-12.51-52.46-11.01-15.52-54.12-19.18-58.71-27.54-4.6-8.37,4.15-25.81,10.44-21.77,6.28,4.04,5.65-11.98,5.45-7.69-.2,4.29,68.68,87.25,74.04,85.97,5.36-1.27,229.59-64.01,229.59-64.01,0,0,1.03-7.96-5.79-7.7-6.83.26-211.07,62.2-212.2,60.13-1.13-2.07-113.54-121.67-107.61-122.96,20.32-4.41,69.89-14.41,68.64-16.18l-2.05-2.89c-2.59-3.66-10.99-.87-15.75.21-25.83,5.87-57.31,14.02-57.92,13.79-1.72-.66-7.99-27.47-7.82-43.7.17-16.25-7.68-54.75,2.11-54.16,25.51,1.55,13.6,49.38,18.81,61.46,5.21,12.06,41.16,11.81,37.77,15.87-3.39,4.07-8.83,7.49-8.83,7.49,0,0,15.85,17.01,21.07,15.39,5.22-1.62-7.02-14.81-4.97-14.16,2.04.65,10.98,4.63,7.31-.26-3.67-4.89-17.17-11.96-19.4-10.45-2.23,1.51-9.08,16.06-11.8,15.44-2.72-.62-29.21-6.64-35.8-23.68-6.6-17.08-11.69-62.83-8.13-64.76,3.56-1.93,17.67-18.47,20.61-14.94,2.94,3.53,20.27,30.49,22.13,23.56,1.86-6.94,3.2-21.47,3.2-21.47,0,0-10.01-6.39-13.64-14.99-3.63-8.61-4.17-13.86-1.7-21.76,2.47-7.9,5.74-11.65,5.64-13.1-.1-1.45.66,2.17,5.97,3.65,5.31,1.48,12.13,5.27,13.79,14.68,1.66,9.39-.47,27.24-3.84,29.34-3.38,2.1-5.69,2.54-3.47,3.19,2.22.66,8.18,6.8,5.57,12.68-2.61,5.87-4.43,10.99.18,7.41,4.61-3.59,11.7-14.85,10.75-28.77-.96-13.93-1.1-25.73-10.31-40.18-9.24-14.48-23.05-12.25-24.23-12.21-1.18.03-5.39-2.39-12.38,1.28-6.99,3.68-11.88,22.42-10.55,34.03,1.33,11.6,3.33,25.33,10.7,32.17,7.37,6.83,12.31,10.29,12.22,9.03-.09-1.26-1.21-5.21-3.86-23.8-2.66-18.63-2.43-24.82-.3-13.79,2.12,11.01,5.62,32.12,13.21,37.49,7.58,5.36,22.82.53,25.95,7.11,3.84,8.08,9.38,22.71,10.58,37.67,1.32,16.45-2.15,31.63-8.35.22-2.82-14.31-7.59-37.9,5.87-31.84,13.44,6.05,30.78,3.31,33.38-2.72,2.6-6.04,12.05-37.24,10.55-37.19-1.5.05-12.07-.71-12.22-2.87-.14-2.17-4.7-25.42-1.37-20.62,3.33,4.8,1.05,15.74,5.19,10.18,4.14-5.57,9.69-35.69,10.76-11.76,1.07,23.88-.4,32.07-7.46,31.21-7.07-.86-8.43-6.25-10.33-4.56-1.89,1.69-16.86,32.54-13.47,30.81,3.39-1.74,8.14-5.68-5.2-10.13-13.35-4.45-15.26-10.36-15.39-4.93-.13,5.43-19.27,12.02-15.33,32.49,3.92,20.42,15.42,44.76,26.58,47.07,11.15,2.3,113.32-27.04,115.93-24.98,0,0-16.83,16.69-20.57,12.53-3.74-4.17-18.87-50.26-14.73-51.75,4.14-1.49,9.91-.87,12-3.36,2.08-2.5,9.19-20.3,4.26-19.33-4.93.97-3.99,11.76-7.48,7.81-3.49-3.94-10.03-32.19-13.47-23.4-3.43,8.78.22,34.64,5.76,35.55,5.54.9,11.87-1.47,13.2,3.89,1.33,5.35,8.63,30.43,7.39,26.44-1.24-4,13.19-31.7,20.04-33.54,6.84-1.84,10.18-4.11,12.04-2.28,1.85,1.83,1.79,25.27,9.68,20.43,7.89-4.84,12.94-19.82,13.17-24.41.22-4.59-3.07-13.94-4.23-12.55-1.16,1.39-7.39,17.51-14.44,15.85-7.06-1.66-13.18-20.37-14.42-28.45-1.24-8.08,10.69-20.65,10.69-20.65,0,0,.92,7.02,6.77,13.06,5.83,6.04,9.17,7.83,12.91,16.36,3.74,8.52,19.41,13.68,20,10.96.59-2.71-12.54-14.98-14.07-28.18-1.53-13.22-14.69-29.36-20.64-28.91-5.95.45-3.03,7.69-2.38,6.04.65-1.65-3-4.25-9.55-1.34-6.55,2.91-13.97,12.1-11.5,27.75,2.46,15.62,9.05,25.68,10.44,32.11,1.39,6.43-5.57,26.6-.08,22.92,5.49-3.69,12.76-18.75,13.31-17.95.54.79,14.68-11.8,24.17-10.76,9.48,1.04,18.99,2.62,22.79,12.73,3.8,10.1,12.8,58.85,4.09,61.83-8.7,2.98-41.02,7.85-43.27,3.38-2.25-4.47-2.22-16.27-1.17-15.23,1.05,1.04-12.39-.11-19.96,1.76-7.57,1.87-19.13,15.42-14.14,15.78,4.98.36,23.14-6.44,21.84-7.46-1.3-1.03-24.64,10.24-11.64,8.18,13-2.06,28.83-2.08,29.02-7.18.19-5.09-7.7-8.58-.17-10.98,7.53-2.4,28.89-9.03,27.36-5.5-1.52,3.54-4.85,1.51-6.06-10.52-1.2-12.04-5.1-31.82.2-34.41,5.3-2.6-5.79,40.24-9.96,40.65-4.19.41-20.25-11.4-19.16-5.79,1.08,5.6,11.38,12.22,2.12,10.4-9.28-1.83-24.21-10.72-19.32-3.9,4.88,6.82,102.69,59.47,102.69,59.47,0,0-7.63,4-12.22.98-4.6-3.03-17.91-12.14-23.19-9.82-5.28,2.32-25.61,16.91-22,27.96,3.61,11.03,24.03-18.45,27.53-8.99,3.49,9.45-2.11,22.93,2.42,16.39,4.54-6.54,8.22-10.93,9.23-18.94,1.01-8.02-8.22-14.61-8.4-17.8-.19-3.19,22.16-16.79,25.78-13.72,3.61,3.07-1.15,5.9-1.35,2.18-.21-3.73-7.06,5.58,1.59-15.53,8.65-21.14,11.31-44.26,15.44-49.76,4.13-5.5,11.9-7.37,13.06-4.19,1.16,3.18,11.99,21.56,21.82,12.66,9.84-8.89,13.81-36.1,10.33-46.19-3.49-10.11-22.47-15.16-21.01-20.05,1.46-4.9,1.43,3.72-6.57,10.71-8,6.99-11.12,17.58-10.97,20.26.14,2.68-.24-4.29-2.36-2.61-2.13,1.68,5.15,17.56,3.77,14.93-1.37-2.64-6.07-7.32-8.5-20.15-2.44-12.85.79-21.58,9.38-26.97,8.59-5.39-7.27,11.55-9.16,4.06-1.9-7.5-1.64-20.74,12.73-20.1,14.35.64,17.78,9.44,13.87,10.1-3.91.66-12.01,1.45-6.15.19,5.85-1.26,19.48.2,24.94,10.27,5.45,10.05,3.36,31.07,3.36,31.07,0,0,3.51-3.33,3.26,1.24-.25,4.57-3.75,12.73-4.62,14.9-.87,2.17-1.73,36.97-13.3,40.57-11.58,3.6-16.92-22.42-17.63-21.86-.71.56-16.49,31.05-17.79,43.11-1.29,12.04,2.39,34.27,1.1,37.5-1.29,3.24-9.33-.19-6.05,1.55,3.29,1.74,29.49,10.6,29.49,10.6,0,0-26.88.99-24.89,1.45,1.98.46,10.85,10.21,11.27,13.38.42,3.16-8.57,4.29-11.17,5.98-2.6,1.69-33.68,11.07-31.49,6.48,2.19-4.59,18.4-8.38,15.82-6.42-2.59,1.95-25.74,13.16-23.31,4.06,2.42-9.11,25.78-16.88,20.61-17.22-5.17-.34-13.82-1.35-4.91-4.33,8.91-2.98,32.16-3.57,36.59,1.3,4.43,4.87,5.02,15.71,4.17,13.62-.85-2.09,64.12-5.57,68.96-11.04,4.84-5.47,5.8-77.7-3.15-90.46-8.98-12.78-30.39-23.84-30.86-18.74-.47,5.1.56,33.92,5.28,30.55,4.72-3.37,20.15-12.7,15.34-6.4-4.81,6.3-12.82,7.64-12.51,18.3.31,10.64,1.71,55.99,7.88,52.59,6.17-3.4,2.67-14.41-10.96-8.88-13.63,5.54-37.19,8.79-37.19,8.79,0,0-.36,11.24,7.1,16.62,7.46,5.37,41.92,17.47,26.54,21.57-15.39,4.1-37.86,9.89-32.05,8.97,5.81-.93,14.82-2.68,15.7,1.51.64,3.05,3.16,95.36,2.97,137.33-.07,15.67-7.75,14.47-8.53,12.99-2.87-5.42,3.41-129.85-5.02-129.52-8.44.33-157.29,36.46-159.43,44.29-1.69,6.21-3.81,98.68-5.12,132.63-.34,8.82-5.46,7.35-5.76,6.94-1.44-2.02-4.53-134.03-13-132.97-8.48,1.04-47.19,13.18-23.5,12.92,23.65-.26,175.57-52.04,170.56-48.33-5,3.71-15.92,29.41-22.06,47.17-6.13,17.73-19.67,64.32-15.65,66.24,4.01,1.91,21.08,5.34,24.43,7.28,3.35,1.94-3.09,25.1-8.87,26.05-5.78.95-50.24,6.4-48.8-1.99,1.45-8.39,16.22-22.25,31.74-23.62,15.5-1.37,24.67.31,29.98-8.95,5.31-9.26,20.67-70.57,26.53-82,5.87-11.44,19.97-26.72,18.79-24.57-1.19,2.15-15.7,21.65-12.87,37.62,2.82,15.94,45.31,60.05,51.06,59.11,5.75-.94,19.46-9.85,22.93-5.14,3.46,4.7,13.04,16.05,8.33,24.55-4.7,8.5-57.31,23.95-51.4,14.01,5.91-9.94,17.58-20.84,24.25-28.75,6.67-7.91,15.13-6.19,13.35-15.83-1.79-9.64-37.84-68.08-36.96-63.92.87,4.16,24.86-19.89,30.6-34.12,5.74-14.25,15.68-40.42,8.46-42.26-7.23-1.83-54.5,18.77-33.92,14.46,22.92-3.85,50.42-16.86,45.32-21.27-10.08-9.15,1.93,32.09,1.92,44.71,0,12.6-29.69,38.95-20.88,21.82,8.82-17.15,34.79-27.97,39.67-33.77,4.88-5.8,10.58-127.33-.66-131.2-11.26-3.88-26.5-9.05-25.46-1.26,1.04,7.78,17.7,2.24,17.46,23.53-.24,21.25-5.23,77.16-5.41,86.31-.19,9.14-3.9,39.65,7.77,38.97,6.95-.22,28.9-7.18,28.58-20.37.12-12.78-6.5-42.93-6.23-37.33-6.69,3.66,9.81,69.15,38.56,69.48,24.09-.96,87.27-75.78,86.8-104.51-.48-28.82-20.81-58.65-33.77-52.57-12.96,6.08-55.52,103.84-49.3,95.61,6.22-8.22-8.01-61.42-14.6-60.38-6.58,1.04-32.56,13.23-27.2,17.05,5.35,3.82-32.35-56.12-27.98-72.47,4.38-16.37,32.83,50.57,39.58,37.44,6.76-13.14,12.48-32.73,14.53-20.67,2.04,12.03,10.28,46.35,1.64,50.68-8.63,4.33-28.12-2.21-26.64,13.01,1.48,15.19,26.11,84.51,34.99,86.55,8.88,2.03,20.68-11.95,21.84,13.42,1.16,25.3-23.28,126.33-17.8,134.7,5.48,8.36,83.98,32.09,105.95,23.31,21.96-8.77,65.65-30.96,65.06-46.51-.59-15.57-10.2-116.42-8.72-153.64,1.49-37.36,12.61-97.87,3.15-117.56-11.28-26.05,20.86-5.55,24.99,22.22,4.92,33.12,12.67,103.94,2.28,115.51-12.49,13.91-22.93,24.58-22.93,24.58,0,0-11.4-52.52,3.43-62.6,14.84-10.09,13.11-17.96,12.2-42.58-.91-24.69-5.28-64.53-19.46-73.68-14.21-9.16-9.57-21.38-35.06-18.92-21.39,2.06-60.04,22.81-66.63,24.58-1.28.34-1.35-.03.14-1.39,9.19-8.37,66.56-21.58,65.41-32.02-1.15-10.45,5.92-17.14-18.08-12.32-24.03,4.83-52.12,18.68-62.26,39.21-10.13,20.5-22.91,63.54-23.48,50.72-.58-12.84,18.69-42.49,50.25-60.49,31.54-17.99,41.7-20.75,42.27-24.81.57-4.06-6.12-6.26-7.31-17.54-1.19-11.29,11.11-34.38,7.39-72.48-3.74-38.26-34.66-35.75-34.66-35.75,0,0-33.77-10.52-55.61-.88-21.85,9.65-26.93,28.64-14.14,32.36,12.77,3.71,17.74-1.34,18.87,7.62,1.14,8.95,1.93,26.87,4.78,24.34,2.85-2.53,8.89-16.58,13.04-6.1,4.15,10.46-5.85,35.17.71,33.34,6.56-1.83,3.37-24.5,5.93-16.44,2.56,8.05,15.1,25.52,22.52,26.9,7.41,1.39,29.43.68,31.11-12.33,1.68-13.03,15.68-49.22-16.55-62.94-32.35-13.77-66.98-25.89-75.82-7.6-8.82,18.27-3.38,72.75,7.16,93.53,10.51,20.72,26.35,12.11,28.31,6.38,1.96-5.73,3.01-15.5,1.96-5.73-1.05,9.75,13.95,33.51,10.72,61.02-3.22,27.45,71.58,14.39,69.55,36.88-2.03,22.45-62.64,107.48-41.53,107.44,21.08-.04,54.66-13.23,35.26,9.69-19.38,22.9-112.05,65.37-85.68,68.99,26.31,3.61,73.47,5.55,67.92,11.28-5.55,5.73-116.19,46.6-91.56,60.4,24.55,13.75,140.9-53.89,129.55-30.72-11.33,23.12-34.68,33.52-14.46,34.95,20.19,1.43,95.54-21.34,101.27-14"/>
</svg>