<?xml version="1.0" encoding="UTF-8"?>
<svg id="Layer_1" data-name="Layer 1" xmlns="http://www.w3.org/2000/svg" viewBox="0 0 1000 698.47">
  <defs>
    <style>
      .cls-1 {
        stroke-miterlimit: 10;
      }

      .cls-1, .cls-2 {
        fill: none;
        stroke: #24524b;
        stroke-width: 5px;
      }

      .cls-2 {
        stroke-linecap: round;
        stroke-linejoin: round;
      }
    </style>
  </defs>
  <path class="cls-1" d="M701.6,361.54c-13.82-1.5-27.45-4.75-40.48-9.61-6.51-2.43-12.88-5.26-19.04-8.48-2.26-1.18-5.59-4.18-8.06-4.57-2.81-.45-4.99,2.39-7.06,3.93-2.49,1.85-5.57,2.99-8.45,4.31-6.51,2.98-13.02,5.96-19.53,8.93-13.02,5.95-26.04,11.9-39.06,17.86-10.4,4.75-21.53,10.19-26.77,20.35-6.41,12.42-1.84,27.61,4.41,40.11,17.73,35.45,47.46,63.17,71.53,94.66,2.58,3.37,5.37,6.99,9.43,8.21,4.06,1.22,9.48-1.56,9.11-5.78,7.59,2.52,15.51,5.06,23.43,3.95,7.91-1.11,15.76-7.09,16.18-15.07.21-4.04-1.44-7.91-3.06-11.61-12.03-27.5-24.06-54.99-36.08-82.48,27.09.1,54.33-6.08,78.11-19.05,7.09-3.86,14.09-8.55,18.24-15.47,4.15-6.92,4.68-16.57-.68-22.61-5.31-5.99-14.21-6.7-22.17-7.56h0Z"/>
  <path class="cls-1" d="M603.47,361.47c-1.6.12-3.29.27-4.61,1.18-1.32.91-2.05,2.89-1.09,4.18.89,1.2,2.64,1.21,4.11,1.52,1.46.3,3.1,1.66,2.45,3.01-13.8,4.6-26.72,11.79-37.9,21.09,23.61-14.92,49.98-25.45,77.38-30.88-5.58-3.29-11.65-2.22-17.75-1.76-7.53.57-15.07,1.11-22.6,1.66h0Z"/>
  <path class="cls-1" d="M653.22,406.35c12.12-3.23,24.89-3.07,37.17-5.62,12.28-2.55,24.91-8.72,30.16-20.11,1.04-2.25,1.65-5.18-.04-7-1.29-1.38-3.38-1.52-5.27-1.6-19.48-.76-38.94-3.73-57.73-8.98,9.22,2.27,21.83,6.34,21.91,17.65.1,13.57-14.48,22.53-26.2,25.65h0Z"/>
  <path class="cls-1" d="M601,548.71c3.34-3.59,5.12-8.36,8.14-12.22,5.6-7.14,14.72-10.35,23.33-13.21-.4,3.61,3.29,6.62,6.92,6.87,3.63.24,7.07-1.47,10.27-3.18,3.21-1.71,6.58-3.5,10.21-3.45,4.66.08,8.71,3.19,11.91,6.58,3.68,3.9,6.88,8.79,6.68,14.14-.19,4.8-3.15,9.15-6.91,12.13-3.76,2.99-8.28,4.82-12.73,6.62-11.28,4.55-22.57,9.11-33.85,13.67-3.01,1.22-6.08,2.45-9.32,2.69-3.24.25-6.73-.64-8.88-3.08-2.15-2.44-2.43-6.58-.06-8.8-3.64,3.42-13.44,4.59-18.24,5.35-3.88.61-9.21,1.35-12.92-.41-9.57-4.53,7.33-13.51,11.22-15.26,5.02-2.26,10.37-4.31,14.21-8.43h0Z"/>
  <path class="cls-1" d="M462.45,504.32c2.52,2.38,3.8,5.75,5.17,8.93,3.72,8.65,8.64,16.77,14.58,24.07,2.75,3.37,5.73,6.6,7.82,10.42,2.09,3.81,3.22,8.39,1.94,12.55-1.2,3.87-4.37,6.91-8.02,8.67-3.65,1.77-7.74,2.39-11.78,2.63-5.25.31-10.89-.1-15.09-3.27-4.15-3.14-6.08-8.36-7.53-13.36-3.79-13.14-5.66-26.83-5.53-40.51.03-2.77.17-5.65,1.48-8.08,2.78-5.14,12.92-5.85,16.95-2.04h0Z"/>
  <path class="cls-1" d="M398.27,544.28c-4.5,9.03-8.75,18.18-12.73,27.45-2.13,4.95-4.21,10.5-2.47,15.61,1.5,4.37,5.63,7.46,10.06,8.79,4.43,1.33,9.16,1.15,13.77.74,5.4-.48,11.62-1.85,14.01-6.72,1.76-3.61.75-7.88-.02-11.82-1.47-7.49-1.93-15.18-1.37-22.78.34-4.63,1.04-9.42-.51-13.8-1.46-4.15-6.28-7.91-10.88-7.52-4.88.42-7.94,6.21-9.86,10.06h0Z"/>
  <path class="cls-1" d="M411.35,345.8c13.46,4.38,27.45,9.48,36.81,20.1,11.59,13.16,13.68,31.9,15.25,49.37,2.25,25.06,4.49,50.13,6.74,75.2.67,7.43,1.25,15.33-2.15,21.97-3.4,6.64-12.4,10.98-18.6,6.82-3.59-2.41-5.19-6.8-6.59-10.89-5.11-15.07-10.22-30.13-15.33-45.19-1.86,32.54-3.71,65.09-5.57,97.63-3.29-9.08-15.72-13.38-23.91-8.26-.46-45.15-17.8-89.03-16.86-134.18-14.49-2.17-29.47-4.53-41.75-12.53-12.27-7.99-21.07-23.3-16.86-37.33,2.6-8.66,9.68-15.41,17.68-19.63,22.18-11.7,47.99-10.6,71.12-3.07h0Z"/>
  <path class="cls-1" d="M408.76,419.37c-.69,4.47.22,9.02,1.06,13.47,7.3,38.29,10.31,77.39,8.95,116.35,3.83-8.56,4.4-18.16,4.92-27.52,1.34-24.24,2.68-48.6.35-72.77-.94-9.73-2.47-19.39-4.58-28.94-.62-2.78-.89-10.54-4.55-10.22-3.5.3-5.73,6.91-6.15,9.62h0Z"/>
  <path class="cls-1" d="M403.69,195.3c11.66,2.67,23.65,6.24,32.37,14.43,9.83,9.23,14,22.88,17.14,36,2.37,9.9,4.38,19.88,6.04,29.93.57,3.46.69,7.83-2.37,9.55-2.85,1.59-6.77-.3-9.57,1.38-1.96,1.18-2.62,3.66-3.05,5.91-2.88,15.04-3.04,30.6-.44,45.69,1.19,6.96,2.51,15.35-2.81,20-3.31,2.89-8.24,3.17-12.49,2.06-4.25-1.11-8.08-3.4-12.08-5.22-13.75-6.26-29.49-6.88-44.44-4.75-14.95,2.12-29.39,6.85-43.93,10.94-3.17.89-6.85,1.67-9.52-.25-3.78-2.72-2.77-8.49-1.44-12.96,9.77-32.83,14.61-67.11,14.31-101.36-.07-8.54-.46-17.16,1.1-25.56,1.56-8.37,6.13-20.17,13.88-24.93,9.17-5.63,23.17-5.46,33.43-4.71,8.05.58,16.02,2.04,23.88,3.84h0Z"/>
  <path class="cls-1" d="M362.9,255.24c4.06,2.46,1.46,9.71,5.05,12.83,1.94,1.68,4.84,1.39,7.37,1,17.04-2.62,34.58-5.42,49.33-14.34,3.81-2.31,7.76-5.11,12.22-4.88,5.22.27,9.44,4.9,10.73,9.96,1.3,5.06.24,10.43-1.27,15.43-.81,2.67-2.07,5.64-4.73,6.48-3.25,1.03-6.37-1.69-9.62-2.72-4.46-1.41-9.24.46-13.44,2.51-16.24,7.9-31.37,19.13-49.19,22.11-8.29,1.39-17.67.56-23.74-5.25-4.57-4.37-6.5-10.83-7.27-17.1-.76-6.17-1.19-12.57-1.61-18.75,8.45-.99,18.89-2.63,26.16-7.27h0Z"/>
  <path class="cls-1" d="M396.93,319.4c7.5-.62,15.01-1.24,22.51-1.87-6.6,4.83-14.43,7.98-22.53,9.06,8.85,3.02,17.69,6.04,26.54,9.06,2.93,1,6.47,1.9,8.86-.06,1.5-1.24,2.05-3.26,2.48-5.17,1.01-4.51,7.52-34.65-2.75-30.07-5.79,2.58-11.13,7.48-16.78,10.55-5.92,3.22-12.04,6.06-18.32,8.49h0Z"/>
  <path class="cls-1" d="M450.76,330.58c-.99,6.29-1.98,12.7-1.04,19,.75,4.99,2.69,9.75,3.34,14.75,1.06,8.25-1.65,16.92-7.23,23.09-.94-3.17-.68-6.69.71-9.69-1.48,2.83-3.5,5.39-5.91,7.49.38-4.98.76-9.96,1.13-14.94-2.34,6.39-5.57,12.46-9.57,17.97.71-7.59,2.53-15.08,5.4-22.14-3.21,4.44-6.42,8.88-9.63,13.32,3.33-7.93,4.7-16.68,3.95-25.24-4.88,5.7-11.88,9.55-19.31,10.63,5.56-8.9,11.16-17.86,15.03-27.61,5.48-13.81,7.33-28.73,10.2-43.3.49-2.48,1.13-5.16,3.11-6.74,2.34-1.87,5.72-1.53,8.62-.77,2.91.77,5.64,1.59,8.67,1.34-.05,2.67-1.56,5.51-2.02,8.2-.67,3.88-1.23,7.79-1.84,11.69-1.2,7.66-2.41,15.31-3.61,22.97h0Z"/>
  <path class="cls-1" d="M467.65,242.43c3.77.43,8.07,1.19,10.04,4.43,1.55,2.56,1.09,5.8.57,8.75-1.04,5.93-2.19,12.12-5.9,16.86-3.71,4.74-10.85,7.38-15.93,4.15-3.72-2.37-5.23-6.98-6.2-11.28-.94-4.13-1.63-8.31-2.07-12.52-.28-2.64-1.57-7.79-.21-10.28,2.49-4.51,15.26-.62,19.69-.11h0Z"/>
  <path class="cls-1" d="M372.77,139.23c2.68-10.36,8.56-20.13,17.41-26.15,8.85-6.01,20.82-7.79,30.52-3.26,8.98,4.19,15.05,13.14,17.87,22.64,2.83,9.5,2.81,19.59,2.4,29.48-.46,11.34-1.4,22.65-2.81,33.91-.17,1.38-.37,2.81-1.14,3.97-2.02,3.05-6.58,2.61-10.12,1.69-11.38-2.93-22.43-7.07-33.9-9.62-7.08-1.57-14.36-2.53-21.61-2.19-2.29.11-12.88,3.2-13.77.93-.86-2.19,4.89-8.53,5.93-10.24,3.18-5.25,4.59-10.95,5.54-16.98,1.27-8.05,1.64-16.26,3.69-24.18h0Z"/>
  <path class="cls-1" d="M412,126c.26-1.62.62-3.45,2.01-4.33,1.27-.8,2.93-.49,4.36,0,9.78,3.29,16.5,12.81,18.83,22.86,2.32,10.05.86,20.59-1.48,30.63-1.02,4.36-2.39,8.97-5.86,11.79-3.48,2.82-9.68,2.58-11.53-1.5,2,9.82,1.53,20.13-1.37,29.72-1.03,3.41-2.63,7.04-5.86,8.56-3.64,1.71-7.98.09-11.3-2.17-5.77-3.91-10.06-9.59-14.25-15.16-7.69-10.23-8.78-19.15,1.33-27.74,9.1-7.74,15.18-20.47,19.38-31.44,2.62-6.85,4.56-13.96,5.74-21.2h0Z"/>
  <path class="cls-1" d="M512.51,213.11c3.42-.14,7.26.01,9.63,2.49,2.54,2.66,2.29,6.85,1.88,10.5-.46,4.07-.93,8.18-2.28,12.05-1.35,3.87-3.66,7.54-7.11,9.75-3.07,1.97-6.79,2.66-10.42,3.06-3.12.35-6.58.42-9.02-1.55-2.21-1.78-2.99-4.75-3.59-7.53-1.4-6.49-5.46-17.58-.65-23.55,4.54-5.64,15.2-4.97,21.56-5.23h0Z"/>
  <path class="cls-1" d="M548.63,224.71c2.88,3.77,3.5,8.73,4.63,13.33,4.2,17.05,16.32,30.86,28.04,43.93,2.01,2.24,5.07,4.68,7.66,3.15,2.96-1.74,1.61-6.41,3.18-9.46,1.12-2.18,3.7-3.29,6.15-3.35,2.45-.05,4.82.77,7.14,1.57,4.38,1.53,9.41,3.76,10.39,8.3.73,3.38-1.15,6.72-2.96,9.68-3.43,5.59-6.86,11.19-10.29,16.78-2.8,4.57-6.31,9.62-11.63,10.28-4.85.61-9.25-2.72-12.81-6.08-11.23-10.58-20.34-23.4-26.62-37.5-2.63-5.91-4.79-12.07-8.24-17.54-3.44-5.47-8.44-10.32-14.7-11.92-1.71-.44-3.54-.65-5-1.63-1.46-.99-2.37-3.12-1.33-4.55.88-1.21,2.6-1.3,4.05-1.65,4.53-1.11,7.66-6.23,6.58-10.77-.43-1.82-1.43-3.48-1.77-5.33-1.85-10.13,14.96-.63,17.54,2.75h0Z"/>
  <path class="cls-1" d="M603.05,234.9c5.72-8.5,13.42-15.98,22.97-19.7,15.29-5.96,33.78-1.84,47.74-10.48,3.11-1.92,5.99-4.48,9.57-5.17,3.29-.64,6.71.41,9.63,2.07,10.21,5.79,14.86,17.98,17,29.52,3.89,21.02,1.97,42.6,1.3,63.96-.67,21.36.06,43.43,8.77,62.95,1.91,4.27,4.22,9.03,2.53,13.39-1.74,4.48-7.24,6.5-12.01,5.89-4.77-.61-9.01-3.19-13.2-5.53-29.54-16.48-64.34-23.33-97.92-19.28,8.58-8.43,16.7-17.58,22.03-28.37,5.33-10.78,7.67-23.44,4.35-35.01-.45-1.56-1.03-3.15-2.18-4.3-1.7-1.68-4.26-2.06-6.62-2.42-10.09-1.53-22.54-3.71-31.42-8.94,4.09-13.1,9.73-27.17,17.47-38.58h0Z"/>
  <path class="cls-1" d="M559.57,315.28c-11.77-.92-21.97-6.32-28.43-16.48-2.66-4.18-2.63-12.7,2.65-15.07,2.55-1.14,5.55-.45,8.1.69,5.53,2.46,9.98,6.78,14.91,10.28,4.94,3.5,10.99,6.29,16.9,4.98-4.7-4.86-9.4-9.71-14.1-14.57-.75-.77-1.52-1.59-1.79-2.63-.77-2.97,3.25-5.25,6.17-4.32,2.92.93,4.85,3.61,6.94,5.85,8.83,9.47,22.53,12.37,35.4,13.73,13.22,1.39,26.55,1.68,39.82.86,3.53-.22,7.29-.61,10.02-2.86,6.17-5.11,3.13-15.9,8.23-22.08,5.26-.26,10.64-.51,15.68,1,5.04,1.51,9.77,5.15,11.11,10.24.99,3.79.01,7.81-1.14,11.56-2.06,6.7-4.69,13.22-7.83,19.49-1.84,3.66-4.04,7.42-7.62,9.42-3.43,1.92-7.59,1.9-11.51,1.63-25.65-1.78-50.28-12.36-75.99-12.35-9.18,0-18.36,1.36-27.51.65h0Z"/>
  <path class="cls-1" d="M647.94,254.19c.43,3.98,4.26,6.53,7.46,8.94,3.2,2.4,6.41,6.24,4.99,9.99-1.24,3.28-5.26,4.36-8.71,4.99-3.92.72-7.84,1.44-11.76,2.16-1.39.25-3,.7-3.46,2.03-.5,1.43.69,2.85,1.78,3.9,2.16,2.09,4.33,4.18,6.49,6.27,2.29,2.21,4.88,4.55,8.06,4.66,2.73.09,5.27-1.58,6.91-3.76,1.64-2.18,2.53-4.82,3.33-7.42,2.48-8.05,4.44-16.25,6.1-24.51.83-4.13,1.58-8.28,2.29-12.44,1.24-6.42,1.88-12.65,3.38-19.1-7.47,2.91-27.98,14.15-26.87,24.3h0Z"/>
  <path class="cls-1" d="M603.31,136.49c-2.34,6.19-2.13,13.06-1.18,19.61,1.33,9.08,4.04,17.95,8.02,26.21,1.97,4.09,4.32,8.12,7.74,11.11,3.43,2.99,8.11,4.82,12.56,3.93,2.84-.57,5.45-2.18,8.34-2.38,5.25-.36,9.84,4.29,11.01,9.41,1.17,5.12-.31,10.48-2.32,15.34-2,4.86-4.55,9.55-5.64,14.7-.37,1.75-.47,3.82.83,5.05,1.56,1.48,4.1.84,6.08,0,13.69-5.84,24.97-17.12,30.82-30.8,1.58-3.69,2.78-7.81,1.69-11.67-1.04-3.69-4.01-6.5-5.68-9.95-3.08-6.33-1.48-13.82-1.95-20.85-.85-12.69-8.86-24.21-19.41-31.32-13.71-9.24-42.92-19.55-50.91,1.61h0Z"/>
  <path class="cls-1" d="M643.82,101.31c15.58.15,31.28,10.41,35.25,25.48,2.67-6.37,10.81-9.35,17.42-7.34,6.61,2.01,11.44,8.1,13.27,14.76,1.84,6.66,1.02,13.8-.85,20.44-1.87,6.65-4.76,12.96-7.15,19.44-2.39,6.48-4.31,13.27-4.09,20.18.03-10.36-4.89-20.63-13-27.08-1.47,3.67-3.05,7.51-6.12,10-3.07,2.5-8.1,3.05-10.74.11-1.74-1.94-1.99-4.81-1.63-7.39.36-2.58,1.25-5.07,1.46-7.67.53-6.5-3.75-13.1-9.9-15.27,1.71,4.88.66,10.63-2.67,14.6-1.62-6.09-7.56-10.15-13.63-11.82-6.07-1.67-12.48-1.49-18.73-2.21-6.26-.72-12.79-2.59-16.95-7.33-7.04-8.02-2.94-18.76,3.88-24.86,9.38-8.38,21.41-14.17,34.18-14.05h0Z"/>
  <path class="cls-2" d="M46.55,381.73s275.92.2,279.61-5.77c3.69-5.96-2.28-16.41-3.46-7.2-1.19,9.23,10.87,32.55,34.01,38.68,23.06,6.11,60.53,5.35,64.86-1.34,4.32-6.67-.17-18.52-3.59-9.49-3.43,9.05,24.62,129.34,29.9,125.68,5.28-3.66,25.96-10.39,28.6-4.76,2.64,5.63,29.83,32.99,17.04,40.22-12.85,7.26-40.85,10.64-43.1-2.16-2.24-12.78-9.24-41.53.09-42.6,9.31-1.07,22.2,6.69,22.42-3.5.22-10.16-2.18-137.07-21.88-146.03-19.75-8.98-54.98-16.74-74.39-15.76-19.48.97-47.96,13.71-37.94,8.98,9.99-4.73,33.96-10.79,24.63-9.89-9.34.9-39.89,21.24-40.42,8.83-.53-12.39,6.97-23.39,10.02-42.76,3.04-19.29-8.19-73.96-1.29-92.67,6.87-18.62,21.77-28.01,26.58-18.62,4.81,9.41,8.18,46.43,11.34,55.23,0,0-31.29,13.74-34.99,4.85-3.7-8.88-4.25-34.1-2.68-23.27,1.58,10.84,7.85,52.76,23.71,61.48,15.84,8.7,58.19-21.53,65.78-22.04,7.58-.5,22.57,5.95,25.06,1.87,2.49-4.08,6.35-22.39.3-24.45-6.05-2.06-10.4-2.39-7.8-4.32,2.6-1.92,8.17,1.16,8.17,1.16,0,0-2.06-8.11,2.19-9.37,4.24-1.25,36.16,2.82,32.06,6.2-4.1,3.38-38.31-1.91-30.78-2.39,7.52-.47,30.06-.83,30.57,8.19.52,9.04-12.6,24.5-20.84,21.76-8.25-2.75-7.02-19.66-10.29-20.45-3.28-.78-7.57-10.13-12.85-7.89-5.29,2.24-15.89,6.74-24.9,11.38-9.02,4.65-48.93,5.38-52.54,10.47-3.62,5.11,9.27-1.45,4.59-19.48-4.67-17.99-21.65-34.75-18.18-37.7,6.86-5.83,3.72-14.57,11.83-16.56,8.09-1.99,21.03-4.63,20.02-3.13-1.01,1.5,18.1,36.41,32.5,31.19,14.35-5.21,8.01-23.13,6.6-29.56-1.41-6.43-1.03-9.55-1.03-9.55,0,0-22.01-18.64-13.5-10.58,8.51,8.07,17.59,16.7,26.03,13.19,8.41-3.5,15.02-44.16-.41-58.51-8.36-7.78-13.83-8.49-13.83-8.49,0,0,2.37,4.36-2.89,16.91-5.27,12.59-24.58,48.22-36.4,50.94-11.85,2.72-24.91,3.77-21.14,2.49,3.76-1.28,8.94-18.8,11.77-39.6,2.81-20.71,4.39-33.09,20.84-38.92,16.38-5.8,22.54-.58,24.19.08,1.64.67,18.61,5.01,23.02,14.37,15.23,32.34,3.57,42.6,2.17,56.62-1.4,14.06,2.66,19.65-.52,20.44-3.19.79-22-8.11-10.99-4.05,10.99,4.05,22.79,13.43,27.58,22.24,4.79,8.82,11.66,65.04,6.75,64.15-4.92-.9-17.97-1.87-17.97-1.87,0,0-5.56,38.74-9.28,50.87-3.74,12.17-15.69,24.92-13.87,28.3,1.82,3.38,15.13-14.7,17.06-9.15,1.93,5.55-8.78,31.47-5.12,27.9,3.65-3.57,10.97-20.46,10.71-15.06-.26,5.41-9.02,26.62-3.88,19.86,5.12-6.74,9.37-19.49,9.57-15.68.2,3.81-7.03,22.39-1.9,15.64,5.11-6.74,9.54-15.67,9.54-15.67,0,0-9.66,23.84-3.16,12.28,6.48-11.52,6.4-22.89,3.29-30.13-3.12-7.23-6.72-13.42-4.76-17.59,1.95-4.18,11.07-26.08,10.42-37.9-.65-11.79,3.46-15.75-3.05-16.24-6.52-.48-18.54-2.45-18.83,2.34-.29,4.79,7.91,5.93-5.47,19.94-13.45,14.09-42.4,15.81-31.39,16.59,11,.78,25.04-2.54,19.83,2.48-5.21,5.03-32.24,2.05-18.82,6.78,13.39,4.72,28.76,5.79,16.89,8.75-11.91,2.97-60.79-4.75-71.6,1.58-10.84,6.35-26.21,25.03-2.25,24.43,23.85-.6,77.26-12.78,57.81-6.5-19.55,6.31-74.35,10.88-65.93,24.62,8.42,13.75,47.4,14.58,54.71,16.69,7.3,2.11-2.09,14.15-5.99,25.47-3.91,11.36,9.45,127.13,9.45,127.13,0,0,12.01-6.72,18.41-1.9,6.39,4.83,12.31,11.31,12.58,5.7.28-5.61,3.56-93.51.03-75.99-3.54,17.59.75,69.28-3.25,67.4-4.01-1.89-15.41-6.41-19.69-2.12-4.28,4.29-21.47,45.35-11.12,49.24,10.33,3.89,39.33-.44,37.23-8.46-2.08-8.01-7.91-34.79-7.91-34.79,0,0-3.49-37.37-3.49-62.45s-9.59-44.26-10.33-56.06c-.74-11.8,7.37-14.75,7.37-14.75,0,0,16.23-9.59,14.75-15.49-1.48-5.9,11.8-9.59,16.96-9.59s11.8,19.18,10.33,11.8c-1.48-7.38-5.9-25.08,9.59-25.08s73.02,2.95,73.02,2.95c0,0-16.96,3.69-11.8,35.4,5.16,31.72,70.81,113.26,79.66,115.47,8.85,2.21,25.81-8.11,19.18-8.11s-15.49,3.69-22.13,14.02c-6.64,10.32-47.94,27.29-32.45,32.45,15.49,5.16,64.17-19.18,64.17-19.18,0,0,20.65-3.69,16.23-11.8-4.42-8.11-14.75-17.7-21.39-22.13-6.64-4.43-61.22-111.05-58.27-91.87,2.95,19.18,55.32,102.19,64.17,105.14,8.85,2.95,19.91-10.33,28.03-2.95,8.12,7.37,19.92,22.86,12.54,28.03-7.38,5.16-64.17,23.6-67.86,14.75-3.69-8.85,18.44-30.98,30.24-33.93,11.8-2.95,25.08-7.37,25.08-15.49s.26-6.02-14.49-37c-14.75-30.98-27.55-60.77-33.45-64.46-5.9-3.69-18.44,5.16-7.38,8.11,11.07,2.95,60.44-7.29,88.46-23.52,28.03-16.23,28.81-27.37,22.91-36.22-5.9-8.85,29.5,23.6-14.01,8.85-43.52-14.75-50.16-22.12-60.48-20.65-10.33,1.47,53.84,16.23,64.17,14.01,10.33-2.21,13.28,5.16,13.28-11.8s-14.75-22.13-9.59-62.69c5.16-40.57,1.47-75.97-11.07-87.04-12.54-11.06-19.92-13.06-19.92-13.06,0,0-6.31,15.24-14.71,23.65-8.41,8.41-26.27,29.95-28.38,20.49-2.1-9.46,5.78-22.07,8.41-31.53,2.63-9.46-13.14-14.19-9.46-18.92,3.68-4.73,9.99-7.88,8.41-7.36s-15.24,18.39-23.65,12.61c-8.4-5.78-15.76-37.31-17.34-48.34-1.57-11.03,3.15-19.97,3.15-19.97,0,0-7.88,14.19,10.51,18.39,18.39,4.2,24.7,1.58,29.95,6.83,5.25,5.25,5.25,12.09,6.83,7.88,1.57-4.2-2.1-18.92,6.83-11.56,8.93,7.36,2.62,17.34,2.62,22.07s7.88,11.03,10.51,8.41c2.63-2.63,11.04-18.39,11.04-28.9s-7.88-19.44-6.3-8.93c1.57,10.51-3.68,21.02,8.4,36.78,12.09,15.76,12.61,28.9,10.51,21.54-2.1-7.36-4.2-11.56,6.31-24.7,10.51-13.14,14.71-39.93-.53-50.44-15.24-10.51-27.32,9.46-24.69,6.83,2.62-2.63-6.83-32.05-38.88-27.85-32.05,4.2-38.36,21.02-39.94,28.37-1.57,7.36-13.66-6.83,18.39-12.09,32.05-5.25,48.86,18.39,50.97,32.05,2.1,13.66-6.31,23.64,3.15,34.15,9.46,10.51,18.39,18.39,15.76,24.17-2.62,5.78-18.39,9.46-12.61,4.73,5.78-4.73,24.7-1.58,29.43,13.14,4.73,14.71-4.21,59.9-6.83,59.37-2.63-.53-12.09-12.09-23.12-14.71l-11.04-2.63s9.46-50.97,9.98-35.73c.53,15.24-13.13,60.95-16.29,63.58-3.16,2.63-65.68-1.05-75.14-4.21-9.46-3.15-22.59-21.02-25.74-15.24-3.16,5.78,16.29,15.24,12.61,18.39-1.61,1.38-5.52.85-9.99-.49-5.76-1.73-12.43-4.8-16.28-6.87-6.83-3.68-14.18-10.51-9.98-4.2,4.2,6.3,13.66,10.51,11.56,10.51s-17.86-15.24-15.24-8.41c2.63,6.83,11.04,12.61,11.04,12.61,0,0-16.29-13.14-12.09-6.31,4.2,6.83,17.34,11.56,17.34,11.56,0,0-18.39-13.14-13.14-4.73,5.26,8.4,21.55,14.18,37.31,14.71,15.77.52,18.39-1.05,34.68,2.1,16.29,3.15,68.83,15.76,73.56,9.46,4.73-6.31,14.19-42.56,17.34-56.75,3.15-14.19,3.68-36.78-5.78-40.98-9.46-4.2-15.77-4.73-24.17,3.15-8.41,7.88-26.27,15.76-21.02,24.17,5.25,8.41,22.59,14.71,11.56,18.39-11.04,3.68-32.05,1.58-22.6,8.41,9.46,6.83,17.87,9.98,11.04,11.03-6.83,1.05-21.54,4.2-25.22-3.15-1.3-2.59-2.33-7.02-3.06-12.02-1.34-9.2-1.64-20.37-.62-25.81,1.57-8.41-2.63,27.85-4.2,27.32-1.58-.53-25.22-6.31-28.9-8.93-3.68-2.63,6.31-14.71,5.78-11.03-.52,3.68-6.3,24.17-7.88,19.97-1.58-4.2-23.12-24.7-26.8-31.53-3.68-6.83-3.68-16.29-7.35-21.54-3.68-5.25-15.77-9.46-18.92-8.41s2.1,7.36,4.73,8.41c2.63,1.05-3.68,9.98-6.83,11.56-3.15,1.58-5.26,1.05-3.68-4.2,1.58-5.25,7.36-13.66,2.63-16.29-4.73-2.63-36.78-4.2-32.05,0,4.73,4.2,28.9,4.2,27.32,2.63-1.58-1.58-29.95-4.73-29.95,2.1s4.2,24.17,10.51,25.75c6.3,1.58,13.13,0,15.24-2.63,2.1-2.63,3.68-8.93,3.68-8.93,0,0,0,6.83,7.36,8.41,7.36,1.58,7.88,1.58,8.93,5.78,1.05,4.2,29.43,48.34,37.31,56.22,7.88,7.88,19.97,10.51,24.17,3.16,4.21-7.36,11.56-25.22,13.14-27.85,1.58-2.63,6.83-31,14.19-47.29,7.35-16.29,17.34-22.59,13.13-22.59s-24.17,8.93-30.47,16.81c-6.31,7.88-15.24,35.73-13.14,39.93,2.1,4.2,24.17-1.05,27.32,7.36,3.16,8.41,7.36,42.03-2.62,50.97-9.99,8.93-26.27,24.7-21.02,23.12,5.25-1.58,14.71-5.26,28.37-.53,13.66,4.73,61.48,11.04,48.87,5.25-12.61-5.78-43.61-14.18-52.02-13.13-8.41,1.05-94.58,38.36-83.02,37.31,11.56-1.05,50.44-26.8,71.46-25.22,21.02,1.58,38.88,2.63,27.85,6.31-11.04,3.68-72.51,23.64-74.09,35.73-1.58,12.09,5.25,26.27,3.15,24.7-2.1-1.58-29.95-16.29-25.22-7.88,4.73,8.4,9.98.52,21.54,17.34,11.56,16.81-2.62-7.88-6.83-25.75-4.2-17.87,50.97-34.68,45.71-37.31-5.26-2.63-17.87-2.63-3.68-5.25,14.19-2.63,53.07,0,65.16,5.78,12.08,5.78,23.12,23.12,7.35,29.42-15.76,6.31-35.73,13.14-22.07,9.99,13.66-3.15,51.49-4.73,57.27-11.56,5.78-6.83.53-12.09,1.05-8.93.53,3.16,242.56,1.05,242.56,1.05"/>
</svg>