<?xml version="1.0" encoding="UTF-8"?>
<svg id="Layer_1" data-name="Layer 1" xmlns="http://www.w3.org/2000/svg" viewBox="0 0 1000 698.47">
  <defs>
    <style>
      .cls-1 {
        fill: none;
        stroke: #24524b;
        stroke-linecap: round;
        stroke-linejoin: round;
        stroke-width: 5px;
      }
    </style>
  </defs>
  <path class="cls-1" d="M57.47,533.83s156.22-.85,191.14-.02c31.31.74,4.69,6.12-7.44,7.13-23.71,1.97-58.91-.88-64.26-12.65-7.95-17.49,18.85-49.02,14.78-103.49-4.12-55.09-5.92-90.83,4.83-107.06,3.52-5.32,9.25-8.44,15.91-11.01,13.84-5.34,31.73-8.31,42.29-23.63,15.79-22.91,13.13-50.77,24.8-61.04,11.74-10.33,18.13-27.26,16.39-28.41-1.75-1.15,6.53,6.49,10.73,22.32,4.19,15.8-5.95,68-19.66,71.48-13.64,3.46-21.09-11.37-25.73-5.78-4.63,5.57-12.09,9.42-11.57,18.4.52,8.96,20.08,83.3,22.63,109.13,2.54,25.7-1.66,47.25-2.49,42.03-.84-5.22-9.37-68.88-16.81-84.65-7.45-15.8-23.86-27.24-19.96-34.45,3.91-7.23,11.41-9.22,9.06-12.14-2.35-2.91-10.06-4.48-10.45-11.02-.39-6.55,12.33-21.93,9.2-19.42-3.13,2.5-45.29,29.97-44.06,24.02,1.23-5.97,13.19-21.81,16.71-52.48,3.55-30.91,8.45-67.64,24.88-78.85,16.55-11.3,41.8-9.49,52.51,1.74,10.72,11.24,23.57,19.91,19.52,50.86-4.01,30.7-17.35,42.11-17.39,62.06-.04,19.87,7.56,27.46,2.46,25.2-5.1-2.26-14.29-18.81-14.29-18.81,0,0,2.04,9.02,2.82,17.99.84,9.6.25,19.13-5.82,17.43-11.71-3.28-24.59-36.97-24.49-35.18.1,1.79-48.84,7.63-55.89,17.71-17.63,25.2,14.59,137.33,30.43,144.13,15.9,6.82,95.46-36.85,94.06-42.72-1.41-5.88-19.79-31-14.42-33.45,5.39-2.46,19.31-11.63,20.57-8.68,1.26,2.95,9.54,24.2,5.77,26.62-3.76,2.42-23.12,1.51-12.75-.41,10.41-1.93,21.44-3.27,34.13-5.84,12.75-2.58,29.25-23.21,23.37-28.5-5.88-5.29-19.83,8.76-29.33,8.94-9.47.17,2.06-3.62,2.72-13.21.66-9.61-11.08,2.02-16.85,9.29-5.75,7.25-28.19,11.8-36.73,16.67-8.51,4.86-45.72,20.06-50.23,25.96-4.5,5.88-20.06,32.09-9.43,22.18,10.69-9.97,16.55-11.19,10.9-33.87-5.67-22.75-17.38-82.72-22.04-87.95,0,0-23.68-7.04-16.17,1.05,7.52,8.09,25.9-10.85,33.63-9.29,7.74,1.57,28.91,17.11,32,33.13,3.08,15.98,2.1,27.85,3.08,15.98.99-11.91,5.63-37.7,6.67-28.75,1.04,8.93,6.49,58.7,9.53,53.92,3.04-4.79,7.65-32.23,5.74-36.96-1.91-4.73-12.51-6.86-7.65-8.78,4.87-1.91,8.19-2,6.27-6.74-1.91-4.74-17.91-14.5-14.61-14.59,3.31-.09,18.53,4.89,24.76,17.93,6.23,13.03,18.65,82.91,25.9,95.21,7.25,12.29-13.2,22.42-7.63,13,5.59-9.45,7.13-11.82,20.71-6.06,13.61,5.77,36.27,12.68,33.47,12.7-2.79.02-12.17,2.45-15.13,10.7-2.95,8.23,1.6,22.28,1.6,22.28l16.06-1.8s-3.05-18.21,1.82-21.77c4.88-3.57.52-13.59-.42-9.44-.94,4.14,11.89,2.28,23.96,8.12,12.1,5.85,37.61,19.96,34.34,23.52-3.27,3.55-45-9.89-37.14-9.92,7.88-.03,30.47,13.49,14.03,12.34-16.36-1.14-34.58-8.14-44.07-8.11-9.45.03-1.51,3.52-22.29-1.68-20.67-5.17-41.88-12.06-44.34-17.29-2.46-5.24-1.38-15.77-2.8-11.66-1.42,4.1-6.54,30.89-8.22,40.16-1.67,9.25-.88,13.86-4.84,20.77-3.95,6.89-28.82,32.49-21.1,17.72,7.76-14.86,57.97-53.11,57.97-53.11,0,0,21.9.77,19.49,5.82-2.4,5.04-34.25,18.98-30.5,20.64,3.75,1.66,135.69,5.63,139.96,3.37,4.28-2.26,32.34-31.91,29.04-31.89-3.31.01-49.35-1.48-54.31-3.16-4.95-1.68-21.07-11.79-16.78-12.95,4.29-1.17,53.49-30.23,52.18-35.98-1.31-5.76-20.61-21.07-18.49-23.42,2.12-2.35,18.29-13.64,18.29-13.64,0,0,16.89,22.96,8.65,25.39-8.22,2.43-10.08-3.33-4.61-5.15,5.48-1.82,26.54-4.46,31.94-10.38,5.42-5.93,7.97-32.36,5.23-29.95-2.73,2.4-10.06,18.94-6.25,15.36,3.81-3.58,12.62-28.45,8.14-27.17-4.47,1.28-20.09,20.97-14,19.09,6.11-1.88,29.29-37.19,23.7-34.68-5.58,2.51-32.25,29.58-28.28,31.26,3.97,1.68,12.89-17.9,7.29-17.18-5.59.72-18.97,2.19-22.13,7.53-3.16,5.33-6.83,27.56-18.69,36.47-11.79,8.86-59.37,19.3-54.85,23.81,4.52,4.52,16.1-18.01,16.02-33.56-.09-15.62-11.24-60.73-18.03-65.8-6.78-5.07-13.53-9.55-19.71-1.2-6.16,8.32-11.36,107.81.02,122.44,11.39,14.64,23.43,19.09,28.05,13.38,4.63-5.72-14.73-3.86-22.58-35.62-7.89-31.92,20.13-49.15,14.09-50.19-6.03-1.03-18.02-26.8-16.53-42.53,1.49-15.79,5.18-18.82,17-24.45,11.87-5.65,29.63-18.02,31.69-22.24,2.06-4.22,2.34-11.35-.81-6.49-3.15,4.85-8.62,34.52-5.84,35.02,2.78.51,13.25-.98,12.77.8-.49,1.78-12.49,6.24-12.19,13.86.3,7.61,19.65,52.06,22.82,63.04,3.16,10.96,6.75,3.36,10.17-8.9,3.44-12.31-19.96-75.09-21.57-88.03-1.6-12.98-2.34-17.7-1.7-15.35.64,2.35-.22,8.9,11.25,18,11.49,9.11,17.24,13.67,19.45,13.01,2.22-.66,13.53-14.66,15.58-20.68,2.06-6.03,2.89-15.02,4.64-13.29,1.75,1.73,14.64,33.53,14.64,33.53l-19.99-7.72s-9.69,12.15-7.77,19.19c1.92,7.04,8.45,34.55,8.45,34.55,0,0-13.02,10.84-14.52,15.54-1.5,4.7-5.66-49.76-6.28-51.51-.62-1.75-12.26,15.05-10.81,9.14,1.45-5.93,6.37-8.42-2.47-21.74-8.84-13.32-13.61-36.28-13.79-41.03-.18-4.76-8.61-1.72-14-12.54-5.4-10.83-2.47-17.44,2.74-11.54,5.21,5.9,8.14,7.69,7.99,3.88-.15-3.81-1.86-11.39-3.63-20.12-1.77-8.74-8.58-9.6-7.56-10.79,1.02-1.2,20.86-6.7,23.11-13.75,2.26-7.06,4.97-11.84,12.55-11.81,7.6.02,15.44,6.64,14.25,3.59-1.2-3.05.45-8.18-19.31-13.82-19.67-5.61-34.53,17.53-34.53,17.53,0,0-9.15,3.12-7.55,16.1,1.59,12.94,9.36,20.26,9.36,20.26,0,0-8.98-19.9,2.95-33.5,12.01-13.69,37.54-15.71,44.95-11.02,7.42,4.7,16.72,22.11,22.13,43.15,5.4,20.98.14,48.76-16.78,48.96-16.84.2-33.75-22.41-33.95-18.21-.2,4.19,12.05,26.55,26.41,28.36,14.42,1.81,22.47-16,31.25-12.87,8.8,3.14-7.85,79.44-3.73,74.09,4.13-5.37,7.12-75.3,12.15-76.63,5.05-1.33,92.13,8.08,92.95,11.54.82,3.46-20.52,142.41-23.37,145.07-2.84,2.65-90.31-5.25-90.47-10.05-.16-4.81,1.13-8.54,1.17-7.42.03,1.11-10.77,47.26-6.16,48.32,4.62,1.07,21.85,1.5,22.49-.71.64-2.21-3.7-31.11.21-31.53,3.91-.42,5.93-4.15,6.77-.08.84,4.07,5.67,38.92,8.89,39.26,3.22.35-52.42,2.3-53.3-2.44-.79-4.29-3.31-31.86-5.58-15.33-1.68,12.22,3.51,27.31-12.72,18.46-10.65-4.67,118.73-2.28,118.32-4.5-.42-2.22-5.09-28.96-5.09-28.96,0,0,2.65-9.74,8.43-10.93,5.79-1.19-20.55-9.46-12.65-12.19,7.92-2.74,20.42,2.34,16.79,2.77-3.63.43-23.03-6.04-13.34-9.56,9.73-3.53,15.31.89,14.21.91-1.09.02-19.55-10.59-14.89-12.92,4.67-2.34,17.95,3.47,15,2.39-2.94-1.08-18.84-10.22-13.8-12.2,5.05-1.98,28.24,3.64,29.51,11.18,1.27,7.53,6.47,26.66-4.45,29.43-10.87,2.76,9.22,3.64,12.35-3.91,3.14-7.57,1.96-27.95-1.79-31.29-3.75-3.34-9.87,1.68-7.05-3.28,2.82-4.98,11.5-12.35,8.87-14.58-2.63-2.23-17.34,12.84-11.93,9.34,5.43-3.51,1.35-4.95.7-17.47-.66-12.54.14-25.93,3.14-23.71,3,2.22,35.86,32.81,32.55,53.8-3.29,20.88-20.42,29.02-20.36,31.65,0,0-18.76,5.5-25.98,9.33-7.19,3.82-9.15,26.98-.39,28.78,8.78,1.81,98.76-4.17,90.54-5.62-8.21-1.45-41.7,25.7-29.15,28.64,12.59,2.95,31.5-20.37,19.7-15.04-11.75,5.3-26.2,21.02-12.29,17.26,13.98-3.78,27.89-18.09,25.67-17.33-2.22.76-21.9,21.8-11.61,18.04,10.33-3.77,19.1-15.07,19.1-15.07,0,0-9.43,17.29-1.28,15.03,8.17-2.28,8.64-24.1,12.42-20.35,3.79,3.75,16.84,30.05,16.72,18.77-.12-11.31-.27-25.67-6.32-27.9-6.04-2.23-32.16.98-27.03-5.09,5.14-6.09,20.06-12.28,24.57-13.08,4.51-.81,34.13,11.87,25.85,18.77-8.25,6.88-18.04,6.94-9.8,2.34,8.27-4.61,21.11-10.79,23.37-13.1,2.27-2.31-6.24-19.03-15.37-21.22-9.12-2.19-36.14,8.01-19.66,1.75,16.58-6.3,24.15-9.45,28.46-41.04,4.35-31.84,3.39-55.97,8.69-69.41,5.32-13.5,16.89-24.88,16.89-24.88,0,0-8.38,25.44-8.96,55.96-.58,30.32,2.99,111.71,6.03,108.64,3.04-3.07,6.17-141.04,10-152.18,3.84-11.17.7-17.41,4.61-14.36,3.91,3.05.06,14.22,7.83,5.3,7.8-8.96,41.71-50.07,36.16-55.49-5.56-5.42-44.78,45.46-50.25,43.26-5.46-2.2-10.96-11.53-10.96-11.53,0,0-17.69,19.53-30.22-1.35-12.54-20.9-23.05-65.79-18.54-77.18,4.52-11.43,15.36-15.96,17.05-1.57,1.68,14.35,10.97,8.34,17.29,20.09,6.32,11.75,14.21,25.02,12.59,16.29-1.61-8.74-7.24-32.58.62-27.3,7.87,5.29,7.15,18.17,10.3,20.45,3.14,2.28,34.68,16.29,40.21,4,5.55-12.33,1.55-58.44-12.81-74.05-14.35-15.6-24.63-9.35-24.63-9.35,0,0-6.37-8.64-31.5.83-24.91,9.39-41.61,39.97-34.65,40.44,6.97.48,36.99-43.01,60.71-24.72,23.78,18.34,27.78,32.75,34.15,50.26,6.36,17.48,24.61,32.07,27.78,40,3.17,7.92-26.89,22.56-34.63,71.94-7.65,48.77-9.92,63.6-9.16,58.92.76-4.68,35.83-67.55,34.26-75.43-1.58-7.9-10.24-9.22-6.31-13.32,3.94-4.1,27.72-17.64,26.16-29.62-1.57-12-19.05-16.99-6.35-8.61,12.72,8.39,55.21,12.57,63.01,45.35,7.77,32.62-29.58,135.71-50.03,142.11-20.3,6.36-131.05-38.46-128.14-50.02,2.92-11.59,13.41-30.35,13.41-30.35l-19.16-9.65s-20.01,36.61-10.97,34.91c9.06-1.69-21.2-7.29-34.87-17.75-13.65-10.45-29.3-49.3-14.21-42.76,15.14,6.56,23.8,31.8,30.46,23.18,6.68-8.66-3.49-32.43,6.52-21.05,10.01,11.38,30.77,31.82,30.84,38,.06,6.18,20.61-1.19,28.32,4.08,7.72,5.28,64.27,15.92,75.99,18.06,11.75,2.15,28.97,26.87,15.65,16.14-13.3-10.71-24.24-14.43-18.77-34.06,5.51-19.75,14.27-77.02,26.99-82.2,12.78-5.21,32.77,1.39,35.95,6.91,3.17,5.52,15.88,25.19,16.46,51.51.57,26.18-3.41,119.48,1.93,142.69,2.89,24.88,13.14,76.7,29.23,68.6,13.03-6.56-11.36-3.5-14.24-3.35-30.05,1.61-88.15,6.09-106.35-1.38-25.98-10.68-32.55-126.99-33.3-123.14-.75,3.85-1.74,81.63-11.68,74.07-9.93-7.55-20.23-43.2-14.85-34.12,5.38,9.08,51.42,86.89,51.42,86.89,0,0,13.27,16.87,8.17,14.82-5.1-2.04-24.39-3.21-6.12-7.05,18.38-3.86,146.66-3.45,146.66-3.45"/>
</svg>