<?xml version="1.0" encoding="UTF-8"?>
<svg id="Layer_1" data-name="Layer 1" xmlns="http://www.w3.org/2000/svg" viewBox="0 0 1000 700">
  <defs>
    <style>
      .cls-1 {
        fill: none;
        stroke: #7dba6a;
        stroke-linejoin: round;
        stroke-width: 5px;
      }
    </style>
  </defs>
  <path class="cls-1" d="M163.27,568.11l-39.21.64s-3.57-2.9,1.03,8.45c4.59,11.36,16.68,11.64,16.68,11.64,0,0,406.5-1.26,419.59-1.88,13.09-.61,12.16-18.02,12.16-18.02l-35.17.48s-185.75.27-215.82,1c-4.05.1,69.29.41,69.08,1.14-1.67,5.99-9.48,7.46-9.48,7.46,0,0-53.66.76-62.82.28-9.16-.47-9.62-11.5-9.62-11.5l224.43-.71s.06-188.68-.13-204.77c-.2-16.1-12.61-17.53-12.61-17.53,0,0-324.19.42-339.64.93-15.46.51-14.21,11.35-14.21,11.35l.4,210.07,10.9-.46s111.75-.61,127.33-2.2c15.57-1.59,30.42-10.82,30.42-10.82,0,0,155.35-.11,172.13,1.1,16.79,1.2,13.35-12.93,13.35-12.93,0,0,.38-67.35.22-114.84-.07-18.51-.21-34.01-.5-41.31-.7-17.66-4.77-19.56-14.26-19.8-41.65-1.01-286.68-1.5-311.23-1.72-19.7-.19-17.19,15.35-17.19,15.35,0,0,1.38,150.89,1.58,163.75.19,12.86,15.52,10.15,15.52,10.15,0,0,107.05.54,120.8.18,13.75-.37,72.59-6.07,103.32-61.23,23.7-42.55-58.6-56.53-94.11-50.58-30.51,5.11-65.84,31.77-29.3,39.42,36.52,7.65,137.47-53.12,92.38-89.29-45.09-36.17-134.57,4.63-134.68,75.25-.1,70.63,170.07,32.32,202.92-24.68,56.73-98.43,100.2-93.01,177.07-71.96,32.22,8.82,71.49-43.65,81.05-103.54,4.71-29.45,12.57-76.98,53.09-109.37,9.2-7.35,20.52-16.03,32.54-25.08,40.94-30.82,89.89-65.76,89.89-65.76,0,0,13.47-12.61,2.77,7.9-9.15,17.54-38.19,110.02-38.19,110.02,0,0-.76,13.03-24.03,4.06-23.25-8.97-39.6-13.64-39.6-13.64,0,0-4.14-1.88-9.29-4.06-7.55-3.17-17.31-6.93-19.44-6.2-1.29.44,21.25,3.56,29.17,5.2,3.11.64,91.78-95.84,91.36-95.19-1.65,2.51-89.6,88.15-94.29,94.29-8.12,10.66-28.25,38.33-28.25,38.33,0,0-7.58,13.25-11.71-3.37-4.13-16.62-11.63-44.01-11.63-44.01,0,0-.91-2.47,9.92-9.31,10.83-6.84,144.86-90.17,144.86-90.17,0,0-1.84-.55-16.32,4.22-2.37.78-5.21,1.78-8.62,3.05-24.29,9.07-171.55,62.71-171.55,62.71,0,0-30.57,7.78-3.39,12.17,27.18,4.39,41.69,6.55,41.69,6.55"/>
</svg>