<?xml version="1.0" encoding="UTF-8"?>
<svg id="Layer_1" data-name="Layer 1" xmlns="http://www.w3.org/2000/svg" viewBox="0 0 1000 700">
  <defs>
    <style>
      .cls-1 {
        fill: none;
        stroke: #24524b;
        stroke-linecap: round;
        stroke-linejoin: round;
        stroke-width: 5px;
      }
    </style>
  </defs>
  <path class="cls-1" d="M65.19,600.01h82.16q16.43,0,15.01-3.69c-1.43-3.69-4.28-11.06-9.87-26.04-5.59-14.98-13.91-37.57-21.4-57.08-7.49-19.5-14.15-35.91-19.38-50.42-5.23-14.51-9.04-27.11-11.3-34.6-2.26-7.49-2.97-9.87.24-7.61,3.21,2.26,10.34,9.16,23.54,13.56,13.2,4.4,32.46,6.3,58.62,9.04,26.16,2.73,59.22,6.3,75.74,11.06,16.53,4.76,16.53,10.7,17.6,18.43,1.07,7.73,3.21,17.24,5.59,26.64,2.38,9.39,4.99,18.67,9.39,34.48,4.4,15.81,10.58,38.17,15.58,54.7,4.99,16.53,8.8,27.23,10.82,33.29,2.02,6.06,2.26,7.49,4.99,6.9,2.73-.59,7.97-3.21,20.81-6.9,12.84-3.69,33.29-8.44,50.3-11.18,17-2.73,30.56-3.45,37.93-4.4,7.37-.95,8.56-2.14,3.69-5.35-4.88-3.21-15.81-8.44-28.42-14.03-12.6-5.59-26.87-11.53-37.69-16.05-10.82-4.52-18.19-7.61-26.04-9.51-7.85-1.9-16.17-2.62-22.24-2.97-6.06-.36-9.87-.36-10.7,4.28-.83,4.64,1.31,13.91,3.32,23.62,2.01,9.71,3.9,19.84.81,23.29-3.09,3.45-11.16.21-27.2-4.03-16.04-4.24-40.06-9.47-59.92-11.85-19.86-2.38-35.55-1.9-43.4-2.02-7.85-.12-7.85-.83,6.66-.48,14.51.36,43.52,1.78,67.54,2.73,24.02.95,43.04,1.43,51.01-2.5,7.97-3.92,4.88-12.25,1.07-23.66-3.81-11.41-8.32-25.92-10.58-34.72-2.26-8.8-2.26-11.89,3.57-11.89s17.48,3.09,24.26,8.2c6.78,5.11,8.68,12.25,5.35,15.93-3.33,3.69-11.89,3.92-17.48-.83-5.59-4.76-8.2-14.51-14.63-28.89-6.42-14.39-16.65-33.41-22.35-46.37-5.71-12.96-6.9-19.86-11.06-23.31-4.16-3.45-11.3-3.45-25.84-3.31-14.55.14-36.5.42-47.8-1.01-11.3-1.43-11.93-4.56-16.65-12.54-4.72-7.99-13.52-20.83-16.25-53.53-2.73-32.7.59-85.26,3.45-118.67,2.85-33.41,5.23-47.68,14.39-60.4,9.16-12.72,25.09-23.9,36.03-24.49,10.94-.59,16.88,9.39,20.81,26.99,3.92,17.6,5.83,42.81,4.16,59.57-1.66,16.77-6.9,25.09-13.79,39.83-6.9,14.74-15.46,35.91-17.12,52.2-1.66,16.29,3.57,27.71,10.11,40.07,6.54,12.37,14.39,25.68,12.01,30.08-2.38,4.4-14.98-.12-33.06-2.62-18.07-2.5-41.62-2.97-62.07-1.9-20.45,1.07-37.81,3.69-45.9,4.4-8.09.71-6.9-.48-.48-10.7,6.42-10.23,18.07-29.49,29.96-50.65,11.89-21.17,24.02-44.23,32.7-65.64,8.68-21.4,13.91-41.14,19.03-62.54,5.11-21.4,10.11-44.47,13.91-59.1,3.8-14.63,6.42-20.81,22-27.35,15.58-6.54,44.11-13.44,68.01-18.43,23.9-4.99,43.16-8.09,50.77-5.95,7.61,2.14,3.57,9.51-1.43,18.19-4.99,8.68-10.94,18.67-20.21,26.28-9.27,7.61-21.88,12.84-25.56,16.77-3.69,3.92,1.55,6.54,5.83,10.94,4.28,4.4,7.61,10.58,7.61,13.67s-3.33,3.09-6.9,4.16c-3.57,1.07-7.37,3.21-6.78,8.8.59,5.59,5.59,14.63,9.99,29.61,4.4,14.98,8.2,35.91,7.85,65.76-.36,29.85-4.88,68.61-7.73,91.2-2.85,22.59-4.04,29.01-2.62,25.09,1.43-3.92,5.47-18.19,10.58-39.48,5.11-21.28,11.3-49.58,15.46-74.08,4.16-24.49,6.3-45.18,8.09-64.33,1.78-19.14,3.21-36.74,7.02-38.05,3.8-1.31,9.99,13.67,13.79,21.88,3.8,8.2,5.23,9.63,7.25,10.11,2.02.48,4.64,0,4.04,6.9-.59,6.9-4.4,21.17-14.27,49.35-9.87,28.18-25.8,70.27-33.65,93.46-7.85,23.19-7.61,27.47.95,13.44,8.56-14.03,25.45-46.37,35.79-67.9,10.34-21.52,14.15-32.22,20.69-44.83,6.54-12.6,15.81-27.11,23.78-40.73,7.97-13.61,14.63-26.34,18.67-32.22,4.04-5.89,5.47-4.93,8.62-2.85,3.15,2.08,8.03,5.29,7.49,9.69-.54,4.4-6.48,9.99-13.32,16.88-6.84,6.9-14.57,15.1-14.92,21.05-.36,5.95,6.66,9.63,8.98,11.95,2.32,2.32-.06,3.27-9.39,7.91-9.33,4.64-25.62,12.96-31.57,8.74-5.95-4.22-1.55-20.99,3.15-33.89,4.7-12.9,9.69-21.94,7.55-25.27-2.14-3.33-11.41-.95-16.94-.83-5.53.12-7.31-2.02-8.09-4.99-.77-2.97-.54-6.78,1.37-13.38,1.9-6.6,5.47-15.99,10.34-17.3,4.88-1.31,11.06,5.47,12.25,3.92,1.19-1.55-2.62-11.42-3.39-20.69-.77-9.27,1.49-17.95,10-24.93,8.51-6.97,23.27-12.24,30.23-8.19,6.96,4.04,6.1,17.39.89,30.61-5.21,13.21-14.78,26.29-25.96,35.45-11.18,9.16-23.96,14.39-34.57,7.31-10.61-7.07-19.06-26.46-19.25-49.07-.19-22.61,7.86-48.45,17.02-60.22,9.16-11.77,19.41-9.47,26.45-3.87,7.03,5.61,10.84,14.53,21.18,17.26,10.34,2.73,27.23-.71,36.09-2.44,8.86-1.72,9.69-1.72,4.82,9.93s-15.46,34.96-17.3,44.29c-1.84,9.33,5.05,4.7,14.15-5.47,9.1-10.17,20.39-25.86,24.2-40.55,3.81-14.68.12-28.36-4.16-38.53-4.28-10.17-9.16-16.83-19.92-20.99-10.76-4.16-27.41-5.83-43.46-3.03-16.05,2.79-31.51,10.05-41.08,18.61-9.57,8.56-13.26,18.43-13.32,25.45-.06,7.02,3.51,11.18,11.06,9.33,7.55-1.84,19.08-9.69,22.89-8.8,3.8.89-.12,10.52.3,18.07.42,7.55,5.17,13.02,16.59,12.07,11.41-.95,29.49-8.32,39.36-9.51,9.87-1.19,11.53,3.81,9.57,13.08-1.96,9.27-7.55,22.83-6.84,27.23.71,4.4,7.73-.36,13.32-6.06,5.59-5.71,9.75-12.37,14.27-14.86,4.52-2.5,9.39-.83,11.89,3.75,2.5,4.58,2.62,12.07-4.46,40.01-7.07,27.94-21.34,76.34-29.19,106.78-7.85,30.44-9.27,42.93-10.82,54.76-1.55,11.83-3.21,23.01-10.23,37.75-7.02,14.74-19.38,33.06-30.44,49.47-11.06,16.41-20.81,30.92-29.01,39.48-8.2,8.56-14.86,11.18-22.83,9.51-7.97-1.66-17.24-7.61-19.38-14.15-2.14-6.54,2.85-13.67,11.3-27.23,8.44-13.56,20.33-33.53,28.54-50.77,8.2-17.24,12.72-31.75,15.7-45.18,2.97-13.44,4.4-25.8,7.25-32.34,2.85-6.54,7.13-7.25,3.69,7.97-3.45,15.22-14.63,46.37-26.52,75.15-11.89,28.78-24.49,55.17-30.56,70.39-6.06,15.22-5.59,19.26-1.31,22.24,4.28,2.97,12.37,4.88,19.98,12.6,7.61,7.73,14.74,21.28,20.21,28.18,5.47,6.9,9.27,7.13,19.38,6.66,10.11-.48,26.52-1.66,36.39-2.02,9.87-.36,13.2.12,12.72-2.97-.48-3.09-4.76-9.75-8.56-16.41-3.81-6.66-7.13-13.32-7.97-20.57-.83-7.25.83-15.1,4.64-29.49,3.8-14.39,9.75-35.32,14.03-53.39,4.28-18.07,6.9-33.29,10.58-46.85,3.69-13.56,8.44-25.45,16.29-33.06,7.85-7.61,18.79-10.94,20.5-11.14,1.72-.2-5.79,2.74-15.89,8.63-10.11,5.89-22.82,14.72-30.66,39.35-7.84,24.63-10.81,65.06-11.53,92.53-.71,27.47.83,41.97,4.46,53.21,3.63,11.24,9.33,19.2,14.39,23.42,5.05,4.22,9.45,4.7,14.27,1.19,4.82-3.51,10.05-11,16.23-22.53,6.18-11.53,13.32-27.11,20.81-40.49,7.49-13.38,15.34-24.55,21.4-37.63,6.06-13.08,10.34-28.06,13.14-37.46,2.79-9.39,4.1-13.2-2.62-18.49-6.72-5.29-21.46-12.07-27.94-15.28-6.48-3.21-4.7-2.85-6.6,4.88-1.9,7.73-7.49,22.83-12.07,34.84-4.58,12.01-8.15,20.93-9.04,20.81-.89-.12.89-9.27,3.8-21.64,2.91-12.37,6.96-27.94,10.34-36.15,3.39-8.2,6.12-9.04,12.07-7.02,5.95,2.02,15.1,6.9,21.58,10.05,6.48,3.15,10.29,4.58,13.08,2.68,2.79-1.9,4.58-7.13,5.83-12.96,1.25-5.83,1.96-12.25-2.85-16.77-4.82-4.52-15.16-7.13-22.47-9.99-7.31-2.85-11.59-5.95-14.86-2.97-3.27,2.97-5.53,12.01-5.89,17.48-.36,5.47,1.19,7.37,2.2,5.11,1.01-2.26,1.49-8.68,1.9-14.51.42-5.83.77-11.06,4.22-12.78,3.45-1.72,9.99.06,16.05,1.07,6.06,1.01,11.65,1.25,16.71-4.22,5.05-5.47,9.57-16.65,11.59-29.55,2.02-12.9,1.55-27.53-1.66-41.62-3.21-14.09-9.16-27.65-16.88-36.68-7.73-9.04-17.24-13.56-24.14-17-6.9-3.45-11.18-5.83-16.53-1.78-5.35,4.04-11.77,14.51-15.7,24.61-3.92,10.11-5.35,19.86-4.76,31.15.59,11.3,3.21,24.14,6.9,34.01,3.69,9.87,8.44,16.77,11.41,23.07,2.97,6.3,4.16,12.01-.59,21.28-4.76,9.27-15.46,22.12-19.98,22.75-4.52.64-2.85-10.93-2.38-23.78.48-12.84-.24-26.96-.95-39.72-.71-12.76-1.43-24.18-.36-37.5,1.07-13.32,3.92-28.54,8.56-39.48,4.64-10.94,11.06-17.6,14.74-14.86,3.69,2.73,4.64,14.86,5.71,26.04,1.07,11.18,2.26,21.4,1.19,30.04-1.07,8.63-4.4,15.68-5.47,19.79-1.07,4.12.12,5.3,2.36,5.78,2.24.47,5.53.24,7.21,3.62,1.68,3.39,1.74,10.41,1.88,16.88.14,6.47.35,12.39,6.22,15.23,5.87,2.84,17.41,2.6,23.23-2.63,5.83-5.23,5.95-15.46,6.9-25.98.95-10.52,2.73-21.34.24-35.37-2.5-14.03-9.27-31.27-20.21-44.4s-26.03-22.14-25.08-29.16c.95-7.02,17.95-12.03,33.82-16.56,15.87-4.53,30.62-8.57,44.17-1.32,13.56,7.25,25.92,25.8,32.34,44.83,6.42,19.03,6.9,38.53,9.27,57.43,2.38,18.91,6.66,37.22,20.57,48.4,13.91,11.18,37.46,15.22,42.81,19.74,5.35,4.52-7.49,9.51-23.31,16.05-15.81,6.54-34.6,14.63-48.28,13.56-13.67-1.07-22.24-11.3-18.79-13.2,3.45-1.9,18.91,4.52,21.76-3.33,2.85-7.85-6.9-29.96-15.22-53.51-8.32-23.54-15.22-48.51-12.37-46.37,2.85,2.14,15.46,31.39,26.87,51.25,11.42,19.86,21.64,30.32,29.85,36.15,8.2,5.83,14.39,7.02,24.26,5.11,9.87-1.9,23.42-6.9,34.6-1.78,11.18,5.11,19.98,20.33,31.51,36.62,11.53,16.29,25.8,33.65,35.2,45.9,9.39,12.25,13.91,19.38,20.1,30.98,6.18,11.59,14.03,27.65,18.07,41.02,4.04,13.38,4.28,24.08.48,31.33-3.81,7.25-11.65,11.06-24.38,12.6-12.72,1.55-30.32.83-46.49.71-16.17-.12-30.92.36-40.43,1.19-9.51.83-13.79,2.02-16.77,1.07-2.97-.95-4.64-4.04-6.54-9.99-1.9-5.95-4.04-14.74-5.47-20.1-1.43-5.35-2.14-7.25,2.85-4.52,4.99,2.73,15.7,10.11,22.24,18.43,6.54,8.32,8.92,17.6,9.04,16.65.12-.95-2.02-12.13-3.81-19.14-1.78-7.02-3.21-9.87-9.27-9.39-6.06.48-16.77,4.28-25.33,3.57-8.56-.71-14.98-5.95-24.26-10.34-9.27-4.4-21.4-7.97-31.39-3.21-9.99,4.76-17.84,17.84-22.59,26.16-4.76,8.32-6.42,11.89,1.55,11.3,7.97-.59,25.56-5.35,38.17-4.99,12.6.36,20.21,5.83,24.97,9.27,4.76,3.45,6.66,4.88,10.46-.24,3.81-5.11,9.51-16.77,18.07-24.49,8.56-7.73,19.98-11.53,33.89-12.25,13.91-.71,30.32,1.66,33.65-3.81,3.33-5.47-6.42-18.79-19.14-34.72-12.72-15.93-28.42-34.48-38.76-50.06-10.34-15.58-15.34-28.18-14.94-41.24.4-13.06,6.2-26.59,15.24-27.89,9.04-1.31,21.31,9.6,25.67,15.05,4.35,5.45.79,5.45-9.32,9.26-10.11,3.81-26.75,11.42-33.65,31.51-6.9,20.1-4.04,52.68-2.85,69.92,1.19,17.24.71,19.14.59,20.45-.12,1.31.12,2.02,10.94,1.19,10.82-.83,32.22-3.21,40.67,4.64,8.44,7.85,3.92,25.92,2.97,34.6-.95,8.68,1.66,7.97,37.22,7.61,35.55-.36,104.04-.36,142.3-.36h54.29"/>
</svg>