<?xml version="1.0" encoding="UTF-8"?>
<svg id="Layer_1" data-name="Layer 1" xmlns="http://www.w3.org/2000/svg" viewBox="0 0 1000 698.47">
  <defs>
    <style>
      .cls-1 {
        fill: none;
        stroke: #24524b;
        stroke-miterlimit: 10;
        stroke-width: 5px;
      }
    </style>
  </defs>
  <path class="cls-1" d="M944.41,471.35c-33.53-7.35-41.63,27.12-58.37,15.07-16.74-12.06-25.95-2.83-28.4.57-2.45,3.39,5.4-.82,5.96-4.71.57-3.89-.25-6.47,1.95-11.49,2.2-5.02-2.39-6.91-.57-10.74,1.82-3.83,0-8.29-2.01-10.3-2.01-2.01,4.52-5.9.13-9.73-4.4-3.83-22.42,4.9-22.98,9.98-.57,5.09,18.21,5.15,18.15,2.26-.06-2.89-31.9,8.48-28.51,14.69,3.39,6.22,25.31-1.13,25.68-2.89.38-1.76-16.51,5.9-20.28,6.84-3.77.94-9.79,3.58-6.15,7.28,3.64,3.7,25.43-.06,26.06-2.01.63-1.95-25.68,4.84-25.37,8.79.32,3.96,20.97,3.14,22.98,1.63,2.01-1.51-10.8-1.32-13.44-.56-2.64.75,2.13,3.45-2.64,5.84-4.77,2.39-117.41,18.71-120.68,18.21-3.26-.5,17.83-59.15,17.83-62.03s-32.05-18.9-45.61-17.77c-13.56,1.13-36.83,28.25-40.78,26.56-3.96-1.69-17.89-78.55-24.68-85.33-6.78-6.78.94,22.42,0,33.91-.94,11.49-8.1-13.56-12.81-16.58-4.71-3.01,17.33,67.25,16.01,75.53-1.32,8.29-25.43,16.77-32.02,10.36-6.59-6.4-15.82-55.06-16.7-77.79-.88-22.73-7.16-57.77,12.43-69.7,19.59-11.93,49.85-17.96,52.99-16.95,3.14,1.01-13.31,4.27-16.83,4.27s5.02-8.6,9.92-18.02c4.9-9.42,2.07-28.63.75-40.5-1.32-11.87.19-15.07,9.23-38.24,9.04-23.17,13-32.96,36.73-42,23.73-9.04,47.48.63,46.9,5.46-.58,4.84-7.53.19-8.29-4.52-.75-4.71,34.09,1.79,42.57,36.83,8.48,35.04-6.47,72.74-12.87,79.15-6.4,6.4-6.66,8.67-5.15,14.69,1.51,6.03-4.52,5.27-9.04,5.02-4.52-.25-7.41,7.16-11.68,4.02-4.27-3.14-11.3-15.19-9.17-21.85,2.14-6.65,2.64-11.05,1.13-13.31-1.51-2.26-3.39,4.4,6.53,4.9,9.92.5,19.97-26.62,12.43-27.63-7.53-1.01-13.06,11.18-18.08,13.31-5.02,2.13,4.14-10.17,4.52-14.19.38-4.02-14.44-17.96-21.85-40.31-7.41-22.35-10.42-21.85-16.45-25.24-6.03-3.39-20.47,4.9-28.13,14.94-7.66,10.05-5.28,18.96-11.05,26.62-5.78,7.66-7.41,17.71-3.64,26.75,3.77,9.04,3.26,21.85,1.88,34.28-1.38,12.43,7.53,18.71,21.73,18.21,14.19-.5,37.8-16.2,39.56-17.71,1.76-1.51-17.33,9.54-31.52,13.56-14.19,4.02-18.08.38-19.46.63-1.38.25-1.19,7.28,2.2,12.18,3.39,4.9,36.54,58.39,42.01,61.22,5.46,2.83,32.4-55,34.28-60.65,1.88-5.65,20.72-15.07,32.78-9.42,12.06,5.65,18.84,23.74,21.1,25.81,2.26,2.07,92.86,19.21,94.75,20.34,1.88,1.13-22.23,70.64-22.79,75.16-.56,4.52,29.39-69.51,28.44-76.29-.94-6.78-114.24-26.37-117.35-23.83s-54.16,150.69-56.6,153.14c-2.45,2.45-36.51.41-37.11-1.6-.6-2.02,28.91-16.67,31.74-16.95,2.83-.28-25.62,17.33-30.04,18.74-4.43,1.41-61.69,3.67-64.8,5.46-3.11,1.79,15.54,12.43,23.36,13.85,7.82,1.41,67.72,3.58,72.61,2.26,4.9-1.32,17.83-53.18,19.34-56.32s1.69-4.65-9.1-5.78c-10.8-1.13-17.71-6.84-28.44-8.41-10.74-1.57-16.77,7.41-13,14.63,3.77,7.22,16.32-.82,17.14-4.71.82-3.89-4.83-5.52-7.53-6.65-2.7-1.13-5.71,2.89-10.55,8.35-4.83,5.46,4.52,11.3,5.28,11.11.75-.19-2.95-4.46-4.58-4.33-1.63.13-39.18,17.33-41.06,16.83-1.88-.5-9.17-47.72-6.66-52.36,2.51-4.65,10.3,51.11,2.39,52.74-7.91,1.63-14.32,8.16-28.25,12.68-13.94,4.52-23.86-37.04-23.99-40.81-.13-3.77,1.89-7.03-21.85,3.7-23.73,10.74-30.52,27.82-38.18,31.83-7.66,4.02-48.85,2.64-50.36-.38-1.51-3.01,22.48,1.76,44.45-1.51,21.98-3.26,34.56-15.26,50.11-11.02,15.54,4.24,71.45,46.18,76.48,47.94,5.02,1.76,75.6,3.89,90.67,4.02,15.07.13-71.2,10.55-79.99,12.18-8.79,1.63-66.81-5.84-80.75-6.03-13.94-.19,64.23,12.06,73.65,12.06s136.56-16.95,138.82-18.65-153.33-9.48-151.45-6.97c1.88,2.51-.88,10.3-10.17,7.28-9.29-3.01-32.65-16.58-33.15-20.22-.5-3.64,10.8,13.69,10.8,17.08s-8.41,6.03-15.19,3.64c-6.78-2.38-6.91-12.81-7.41-16.45-.5-3.64,5.68,10.74,3.99,15.16-1.69,4.43-19.12,6.12-17.71,1.03,1.41-5.08-10.08-15.35-10.93-17.42-.85-2.07,10.93,6.59,10.36,12.06-.56,5.46-9.79,8.95-13.66,8.95s-4.71-8.29-10.74-9.61c-6.03-1.32-8.85,8.85-35.04,6.41-26.18-2.45-22.23-10.36-22.23-6.22s-36.67,5.34-59.27,7.72c-22.6,2.38-129.19,21.47-147.55,15.82-18.37-5.65-66.96-170.09-53.69-214.73,13.28-44.64,39.87-47.85,62.85-41.06,22.98,6.78,44.45-8.54,48.85-13.06,4.4-4.52-27.88,10.55-29.39,14.19-1.51,3.64,14.69,27.25,30.26,33.53,15.57,6.28,43.7,2.51,44.45,1.89.75-.63-18.34-46.09-33.03-55-14.69-8.92-43.33,15.82-47.22,13.06-3.89-2.76-2.39-51.23,15.07-67.94,17.46-16.7,32.78-13.81,31.39-7.91-1.38,5.9-4.58-12.18,4.18-35.63,8.76-23.45,29.39-47.47,77.7-37.86,48.32,9.61,61.87,71.08,61.66,75.25-.31,6.12-1.13,23.11-3.08,28.44-1.95,5.34-3.58,9.98-3.58,15.82s-4.02,23.04-11.3,26.18c-7.28,3.14-10.3,3.01-14.94,11.8-4.65,8.79-6.15,16.7-22.73,20.59-16.58,3.89-32.4-8.41-45.84-21.73-13.44-13.31-14.44-27.25-13.19-26,1.25,1.26,11.3,21.35,21.35,30.01,10.05,8.67,23.26,12.34,18.84,18.84-4.43,6.5-9.51,20.53-9.42,28.44.09,7.91,9.98,42.1,5.93,40.97-4.05-1.13-36.17-83.82-45.11-97.29-8.95-13.47-23.36-19.5-21.38-23.64,1.98-4.14,12.81-13.28,8.01-13.75-4.8-.47-30.7,11.77-29.01,4.99,1.7-6.78,26.06-7.79,26.18-16.07.13-8.29-8.85-10.99-5.53-19.9,3.33-8.92,17.64-11.8,21.91-3.14,4.27,8.67,13,30.39,15.64,24.17,2.64-6.22,5.15-16.2,16.83-24.86,11.68-8.67,15.32-5.53,15.57-21.35.25-15.82,27.88-5.27,29.64-11.43,1.76-6.15-20.34-29.38-17.33-31.02,3.01-1.63,19.71,27.88,26.75,28.63,7.03.75,22.17,5,27.56,13.37,2.67,4.14,7.45,13.33,6.09,13.62-4.09.89-6.15-11.18-15.07-15.95-8.92-4.77-13.81.38-20.34,1.38-6.53,1.01-10.08-5.84-24.39-2.64-14.31,3.2-3.67,18.93-12.43,23.26-8.76,4.33-18.93,8.85-23.64,16.39-4.71,7.53-10.45,4.99-18.27-11.77-7.82-16.76-18.55-16.48-22.6-8.85-4.05,7.63,5.65,24.11,8.29,38.99,2.64,14.88,18.27,8.48,18.55,5.27.28-3.2-.38-1.98-4.8-.09-4.43,1.88-9.35-1.54-10.23-3.42-.88-1.88-10.11,22.16-10.67,27.82-.56,5.65,8.1,16.39,24.11,48.6,16.01,32.21,36.17,82.5,39.37,86.27,3.2,3.77,10.74-41.06,12.62-45.58,1.88-4.52,13.56,1.13,14.88-.38,1.32-1.51-23.92-42.38-26.18-43.51-2.26-1.13-7.53,15.07-7.72,19.03-.19,3.95,15.63,38.8,9.61,75.16-6.03,36.36-14.32,64.42-14.32,69.51s62.44,5.27,64.42.75c1.98-4.52-20.34-115.28-22.89-115.28s8.19,47.75,3.67,72.61c-4.52,24.86-11.3,44.08-15.82,46.62-4.52,2.54-103.41.19-103.22-3.58.19-3.77-14.69-152.76-35.79-180.64-21.1-27.88-59.33-23.17-85.33,16.64-25.99,39.81-38.24,187.93-46.9,221.08-8.66,33.15-2.64,52.74-40.31,19.21-37.67-33.53-44.83,3.01-44.83,3.01"/>
</svg>