<?xml version="1.0" encoding="UTF-8"?>
<svg id="Layer_1" data-name="Layer 1" xmlns="http://www.w3.org/2000/svg" viewBox="0 0 999.79 662.28">
  <defs>
    <style>
      .cls-1 {
        fill: none;
        stroke: #24524b;
        stroke-linecap: round;
        stroke-linejoin: round;
        stroke-width: 5px;
      }
    </style>
  </defs>
  <path class="cls-1" d="M960.57,533.42s-236.02,3.71-262.59-2.12c-26.56-5.83,3.89-15.55,3.89-31.75s-42.12-7.77-65.45-20.73c-23.33-12.96-16.2-44.06-16.2-44.06,0,0-132.84,2.59-147.74,8.42-14.91,5.83,170.42,10.37,173.66,11.02,3.24.65-11.66-59.61-14.26-85.54-2.59-25.92,20.09-22.03,26.56-59.61,6.48-37.58,53.14-55.08,73.22-44.71,20.09,10.37,25.92,59.61,31.1,81,5.18,21.38-33.05,74.52-36.29,49.89-3.24-24.62,99.79-41.47,118.58-34.34,18.79,7.13-38.2,146.23-39.49,165.02-1.3,18.79,54.39-133.27,48.56-161.14-5.83-27.86-82.94-7.78-119.23,9.07-36.29,16.85-64.8,159.4-70.63,166.53-5.83,7.13-137.37,1.3-145.8,0-9.62-1.66-6.87-22.73-4.54-25.92,1.84-5.72,2.66,14.84-2.59,23.33-3.24,6.48-54.43-3.24-56.37-.65-1.95,2.59,20.73-48.6,31.75-64.15,11.02-15.55,173.01,14.9,182.73,25.92,9.72,11.02-46.01-5.83-50.54-15.55-4.54-9.72,7.13-17.49,8.42-31.1,1.3-13.61-.65-69.33-3.89-86.18-3.24-16.85,5.83-42.12,14.9-58.32,9.07-16.2,34.34-25.27,45.36-34.99,11.02-9.72,36.29,4.54,42.12,3.24,5.83-1.3-10.37-11.02-30.46,2.59-20.09,13.61-27.21,92.66-31.1,103.68-3.89,11.02,7.77,22.03,13.61,23.33,5.83,1.3-36.93-12.96-59.61-20.73-22.68-7.78-36.29-28.51-54.43-38.88-18.14-10.37,7.13,22.03,3.89,26.57-3.24,4.54-31.1-21.38-45.36-25.92-14.26-4.54,3.24,31.75,20.09,40.82,16.85,9.07,47.3,17.49,40.17,16.2-7.13-1.3,7.78-29.16,10.37-31.1,2.59-1.94,10.37,6.48,10.37,12.31s-8.42,17.49-11.66,23.33c-3.24,5.83,73.22,40.82,91.36,35.64,18.14-5.18,64.15-123.76,64.15-149.03s-11.02-33.05-38.88-54.43c-27.86-21.38-21.38-29.16-24.63-36.93-3.24-7.78-5.83-35.64-21.38-55.08-15.55-19.44-57.02-5.18-69.33-2.59-12.31,2.59,5.83-12.31,13.61-18.14,7.78-5.83,46.01-14.26,60.91-5.18,14.9,9.07,9.72,14.25,1.3,15.55-8.42,1.3,3.89-5.83,18.79.65,14.91,6.48,10.37,46.01,5.18,61.56-5.18,15.55-16.2,20.09-18.79,16.85-2.59-3.24,5.83-15.55-1.3-26.57-7.12-11.02-8.42,5.18-11.01,12.31-2.59,7.13-1.3-12.96-5.19-20.09-3.89-7.13-14.26-5.83-23.33-9.07-9.07-3.24-4.54-17.5-7.13-23.98-2.59-6.48-32.4,5.18-35.64,14.9-3.24,9.72,3.89,77.76,17.49,83.59,13.61,5.83,31.1-8.42,36.29,1.94,5.18,10.37-1.3,18.79-11.02,28.51-9.72,9.72,46.01-46.65,55.73-47.95,9.72-1.3,14.9,2.59,15.55,7.13.65,4.54-10.37,8.42-23.33,16.2-12.96,7.78-24.62,33.69-27.86,37.58-3.24,3.89-20.74-11.66-23.98-7.78-3.24,3.89-12.31,63.5-12.96,60.91-.65-2.59-43.09-10.7-43.09-10.7,6.48-1.62,19.12-12.63,22.35-21.38,3.24-8.75.97-23-1.94-31.75-2.92-8.75-.65,15.55-1.3,23.65-.65,8.1-3.24,23.33-4.21,27.54-.97,4.21,3.24-1.3,7.78.32,4.54,1.62,11.02,11.02,11.99,8.42.97-2.59.97-59.94-3.24-69.66-4.21-9.72-21.06-16.2-25.27-18.14-4.21-1.94,3.89,1.62,6.48,1.94,2.59.32-1.95-.65-7.78-14.58-5.83-13.93-1.94-23.65-8.42-39.53-6.48-15.88-14.9-13.61-14.9-13.61,0,0-1.95-5.51-15.23-.97-13.28,4.54-21.71,21.06-21.71,37.58s-.97,32.07-.97,32.07c0,0,10.7-1.94,12.96-5.83,2.27-3.89-2.92-13.28-2.27-20.41.65-7.13,8.1-16.52,16.2-26.89,8.1-10.37,6.16-14.26,6.48-6.16.32,8.1,18.47,22.03,18.14,29.16-.32,7.13-5.83,28.83-17.82,29.81-11.99.97-20.73-15.23-22.68-22.68-1.94-7.45,5.51,8.42,5.83,13.61.32,5.18-3.89,6.8-6.8,11.99-2.91,5.18,2.59,23.33,4.21,27.86,1.62,4.54,4.21-5.51,12.64-7.45,8.42-1.94,13.61,10.69,14.26,11.02.65.32,8.42-15.87,11.99-17.82,3.56-1.94,12.96.32,13.61-.97.65-1.3-8.42-22.68-14.58-24.3-6.16-1.62,0,11.02-1.62,23.33-1.62,12.31-7.13,22.03-8.75,25.92-1.62,3.89-4.86-15.55-14.26-21.71-9.4-6.16-11.01-17.17-11.01-20.09s-13.61,4.86-21.38,8.75c-7.78,3.89-11.02,33.7-15.55,40.18-4.54,6.48,4.86-31.75,8.42-35.64,3.56-3.89,10.37,6.48,15.23,14.58,4.86,8.1-.97,36.93-.97,44.71s-8.75,13.61-11.99,15.23,10.37-10.37,13.61-10.69c3.24-.32,25.27,5.83,36.61,6.8,11.34.97,22.03-2.59,30.46-1.94,8.42.65,19.76,9.4,24.3,14.26,4.54,4.86-12.31-4.86-13.93-5.51-1.62-.65,8.75,4.54,11.34,8.42,2.59,3.89-13.93-4.21-16.2-4.86-2.27-.65,9.4,3.24,6.8,5.19-2.59,1.94-12.96-.33-17.82.97-4.86,1.3-15.87-3.24-19.44-3.24s-42.12,2.59-42.12,2.59c0,0-1.62,1.3-17.49.32-15.88-.97-26.57-69.98-30.78-76.46-4.21-6.48-6.8,9.07-7.13,22.36-.32,13.28,11.02,20.73,9.4,27.86-1.62,7.12-23.65-7.13-29.16-10.05-5.51-2.92-7.13,10.05-14.58,11.34-7.45,1.3-27.54-21.38-29.49-33.05-1.94-11.66,19.12,13.28,23.65,11.66,4.54-1.62-6.16-6.8-3.89-14.58,2.27-7.78,18.14,19.12,20.73,21.7,2.59,2.59-8.1,13.93-8.75,18.14-.65,4.21,51.19,33.05,62.2,25.92,11.02-7.13-13.93-87.15-22.03-92.01-8.1-4.86-27.86-17.82-24.95-13.28,2.91,4.54,15.23,8.42,11.99,1.3-3.24-7.13-.97-22.68-.97-22.68,1.3-13.28,4.21-37.58-9.72-50.22-13.93-12.64-28.51-3.24-29.81-2.92-1.3.32-16.52,6.48-20.74,30.13-4.21,23.65-13.61,39.2-14.25,40.17-.65.97,8.1-.65,16.2-7.45,8.1-6.8,11.01-32.4,15.23-41.79,4.21-9.4,1.94-10.69,5.19-5.18,3.24,5.51,24.95,27.22,23.65,35.64-1.3,8.42-8.1,23.65-19.12,25.27-15.12,2.22-18.47-22.68-18.47-22.68,0,0-.32,11.02-.32,16.2s4.86,11.02,12.63,15.87c7.77,4.86,6.48,8.75,6.48,10.37s5.51-4.86,11.34-12.96c5.83-8.1,4.54-14.9,6.16-14.58,1.62.32,5.51,27.21,4.54,31.1-.97,3.89-12.63-6.16-18.47-3.24-5.83,2.92-4.21,22.68-4.54,27.21-.32,4.54-1.94-21.71-3.24-26.57-1.3-4.86-15.88.97-22.68,4.21-6.8,3.24-1.62-1.94,0-8.42,1.62-6.48,4.54-26.89,4.86-25.92s-15.21,2.68-27.32,10.25c-12.11,7.57-19.18,42.39-19.68,47.44-.5,5.05,9.59,8.07,11.61,8.07s-.5-27.76,3.03-35.83c3.53-8.07,3.53,30.79,9.08,40.88,5.55,10.09,41.42,55.11,41.42,55.11h24.62c2.59,0-4.32,34.13-2.59,35.42,1.73,1.3,11.67-41.04,15.55-57.02,3.89-15.99,1.3-25.49,5.62-33.26,4.32-7.78,6.04,16.85,8.64,19.44,2.59,2.59,22.46-20.3,28.94-28.51,6.48-8.2,9.07-.86,5.61,15.99-3.46,16.85-25.06,36.29-28.51,44.06-3.46,7.78-23.33,82.94-39.74,95.04-16.41,12.1-60.91-60.91-70.41-81.21-9.5-20.3-7.78,2.59-6.48,15.55,1.3,12.96,55.73,72.14,67.82,76.03,12.1,3.89,43.2-52.27,39.74-57.46-3.45-5.19-22.89-18.14-25.92-19.01-3.02-.87-8.64,14.26-12.09,21.6-3.46,7.34,5.19,0,3.46-7.34-1.73-7.34-33.26-64.37-50.11-82.94-16.85-18.58-52.27-21.6-57.02-27.21-4.75-5.62-6.05-16.85-8.21-25.06-2.16-8.21-.43,14.26,15.55,9.07,15.98-5.18,22.03-53.57,21.17-69.55-.86-15.98-7.78-34.99-41.9-50.11-34.13-15.12-62.64,14.69-66.09,16.85-3.46,2.16,10.8-27.65,38.01-34.56,27.22-6.91,52.27,0,66.53,21.6,14.26,21.6,15.55,43.63,6.48,52.27-9.07,8.64-22.46,30.67-19.44,38.02,3.02,7.34,15.98-25.92,11.66-37.58-4.32-11.66-8.64,14.26-11.66,24.62-3.02,10.37-25.06,34.99-38.01,34.99s-36.29-12.53-43.2-28.51c-6.91-15.98-1.73-53.57,6.91-34.56,8.64,19.01-.43,38.45-9.5,62.64-9.07,24.19-27.65,40.17-23.76,42.77,3.89,2.59-10.37-27.65-26.35-48.38-15.98-20.74-9.07-57.89,5.62-77.76,14.69-19.87,36.29-10.8,42.77-4.75,6.48,6.05-1.73,25.49-10.8,29.81-9.07,4.32-16.85-23.33-13.39-31.97,3.46-8.64,26.78-11.66,32.4,5.18,5.62,16.85-17.71,25.92-18.14,35.42-.43,9.5,19.01,41.04,19.44,47.95.43,6.91-12.73,21.73-18.49,25.03-5.77,3.29,4.12-9.06,37.88-9.88,33.76-.82,55.18,17.3,51.88,17.3s-86.47-6.59-107.88,1.65c-21.41,8.24-48.59,44.47-41.18,60.94,7.41,16.47,21.41,98,21.41,121.88s-18.94-33.77-18.12-53.53c.82-19.76,67.53-40.35,139.18-18.12,71.65,22.24,42.82,84.82,63.41,105.41,20.59,20.59,13.18-41.18-17.29-93.88-30.47-52.71-154.83-65.88-194.35-30.47-39.53,35.42,23.06,126,23.06,126,0,0,211.8-10.41,159.96,1.68-51.84,12.1-326.02,5.18-326.02,5.18"/>
</svg>