<?xml version="1.0" encoding="UTF-8"?>
<svg id="Layer_1" data-name="Layer 1" xmlns="http://www.w3.org/2000/svg" viewBox="0 0 1000 700">
  <defs>
    <style>
      .cls-1 {
        fill: none;
        stroke: #24524b;
        stroke-linecap: round;
        stroke-linejoin: round;
        stroke-width: 5px;
      }
    </style>
  </defs>
  <path class="cls-1" d="M67.89,573.31s143.58-.94,132.81-4.39c-10.74-3.45-15.34-103.76-9.64-109.87,5.66-6.08,19.47-6.06,54.79-3.98,35.42,2.08,49.42-2.96,49.42-2.96,0,0,22.88,118.3,19.21,118.28-3.68,0-30.62,10.24-33.7-10.32-3.01-20.15-12.01-69.83-8.15-79.25,3.82-9.33,10.97-14.46,7.25-7.26-3.74,7.26-18.88,12.46-16.69,2.04,2.16-10.3,40.69-21.46,37.46-32.55-3.19-10.96-117.06,1.85-112.07,3.86,5.01,2.02.21-34.75-3.29-62.8-6.98-56.06-2.77-123.37,11.43-134.83,14.02-11.31,26.94,2.24,36.92,15.24,10.14,13.21,45.84,69.09,40.95,69.98-4.9.89,26.68-66.75,33.69-65.93,7.02.82,16.3,10.77,21.82,8.27,5.5-2.5,7.09-9.12,7.09-11.59,0-2.46-32.5-11.39-28.69-8.15,3.82,3.26,6.89-44.36,10.52-33.5,3.68,11.01-7.24,22.99,5.91,18.96,13.09-4,26.71-34.5,26.78-22.91.08,11.75-18.41,43.95-20.01,50.54-1.61,6.64-34.55,103.38-47.89,106.17-13.38,2.79-77.36-72.01-81.28-72.87-3.91-.86,28.96,33.67,24.51,39.93-4.49,6.31-29.75,26.4-21.57,27.33,8.19.93,18.83-10.11,18.83-10.11,0,0-22.16,21.28-8.6,17.55,13.5-3.72,23.39-17.55,21.59-14.8-1.81,2.76-21.53,13.86-9.98,14.8,11.56.94,18.98-13.88,21.31-11.12,2.34,2.77-19.89,14.86-9.75,12.06,10.11-2.79,17.74-6.51,17.74-6.51,0,0,8.85,26.36,11.52,22.55,2.66-3.79,55.66-32.67,56.62-47.24.94-14.33-2.94-30.19-2.91-33.67.04-3.47-19.2,19.19-12.61,24.28,6.63,5.12-.59-24.04-7.99-11.82-7.5,12.39-12.84,36.52-17.1,22.65-4.2-13.66-8.9-25.44-4.76-41.45,4.07-15.73,13.71-19.48,13.49-29.59-.22-9.99-13.21-20.37-19.52-22.42l-6.3-2.05s-2.94,21.85-3.86,20.27c-.92-1.58-.84-14.08-6.12-16.66-5.27-2.57-26.67-12.77-32.31-15.8-5.62-3.03-15.72,2.04-15.72,2.04,0,0,42.5,44.75,43.33,38.36.82-6.35,1.62-12.12,1.62-12.12,0,0,6.39,11.59,6.64,16.91.25,5.35,2.83,15.08,3.74,17.25.91,2.18,8.65,11.51,8.73,9.31.09-2.2-4.53-37.18-3.7-45.05.82-7.8-1.11-20.14-1.82-26.24-.71-6.05-19.1-15.53-12.12-10.55,7.03,5.01,20.33,12.58,27.45,3.98,7.06-8.51,12.27-56.36,8.28-63.83-3.95-7.4-21.21-5.98-21.75-4.13-.55,1.85-.92,10.24-8.04,12.13-7.13,1.89-11.75.49-13.9,5.2-2.16,4.74-2.83,16.23-2.83,16.23,0,0-1.4-16.22-7.08-8.14-5.74,8.16-1.29,20.29-1.29,20.29,0,0-16.61-8.25-16.39-30.21.21-21.39,10.2-31.89,18.8-29.64,8.63,2.26,8.63,10.04,6.18,4.54-2.44-5.46-6.78-9.52,4.41-12.25,11.15-2.72,39.04-.54,41.54,7.59,2.53,8.22-.69,7.31-14.05,5.04-13.31-2.26-36.61.99-43.43,12.99-6.92,12.18-1.97,36.58-2.62,46.35-.66,9.89-12.19,22.44-15.48,27.5-3.31,5.1-12.81,25.8-13.73,31.06-.93,5.28-2.9,67.36-.61,91.02,2.35,24.29,44.97,51.14,41.71,51.76-3.26.61-35.82-3.12-15.26,3.08,20.71,6.26,46.28-26.89,45.57-22.05-.71,4.86-1.54,27.08.98,32.09,2.54,5.04,8.79,13.93,8.79,13.93,0,0,11.41-18.92,12.06-23.28.65-4.34-4.75-42.53.41-37.77,5.18,4.79,8.82,35.29,8.7,41.52-.12,6.26-8.9,32.38-8.57,41.47.34,9.18,13.45,92.39,10.49,95.97-2.97,3.6,45.94-.59,45.94-.59,0,0,12.56-97.37,19.41-110.56,6.83-13.15,8.54-31.78,7.88-29.3-.66,2.49,19.74,6.02,59.75,6.92,40.28.9,68.33-3.11,68.97-8.13.64-5.01,7.8-5.71-32.65-5.31-40.19.4-94.1-.92-95.11-6.47-1.01-5.53-7.04-37.31,2.37-42.31,9.41-5,31.19-17.48,31.19-17.48,0,0-12.24-20.36-12.15-23.97.09-3.61,27.98-37.05,27.73-25.1-.26,11.99-12.53,17.62-7.33,18.13,5.2.51,11.05-2,11.05-2,0,0-3.83,71.85,5.48,75.43,9.34,3.6,70.31-5.79,71.55-11.99,1.24-6.19-1.42-109.26-9.55-110.88-8.12-1.61-67.7,2.65-67.84,9.18-.14,6.55,5.47,102.61,10.68,106.23,5.22,3.63,31.12,4.55,30-.37-1.11-4.91-21.35-24.27-7.37-18.96,14.04,5.33,23.33,17.53,18.64,14.5-4.68-3.02-27.35-19.89-13.9-17.63,13.5,2.26,19.85,13.24,19.85,13.24,0,0-21.46-23.61-10.95-19.49,10.54,4.13,17.47,18.17,16.89,16.33-.57-1.84-17.29-30.36-5.08-20.18,12.27,10.24,12.75,22.54,13.97,18.21,1.22-4.32,4.94-25.22,7.81-14.86,2.88,10.4,2.08,36.98-3.88,39.54-5.96,2.55-29.04-.91-25.46-2.8,3.57-1.9,24.22,9.65,36.73,7.03,12.54-2.63,23.34-22.62,24.57-35,1.22-12.33-8.42-117.2-16.02-112.87-7.6,4.33-20.08,35.65-14.76,27.15,5.31-8.48,12.41-24.13,7.22-31.72-5.17-7.57-40.64-37.21-40.64-37.21,0,0,2.76,8.11-7.7,16.58-10.47,8.47-13.54,20.31-15.8,18.01-2.26-2.3-11.78-14.98-11.78-14.98,0,0,7.24,11.55,4.89,14.55-2.35,3-5.32,8.37-5.32,8.37l8.52,5.71-2.5,10.72s10.96.36,11-2.02c.04-2.37-3.91-7.61-.38-12.42,3.53-4.81,4.79-11.32,6.51-10.77,1.72.55,11.86,18.65,13.68,12.09,1.82-6.55,6.03-20.22,3.85-30.74-2.17-10.48-7.14-25.29-3.75-32.3,3.38-7,13.53-31.71,9.7-44.78-3.81-13.01-10.6-11.15-12.2-12.97-1.6-1.82-3.16-7.13-16.59-9.02-13.39-1.88-41.45,14.86-43.2,20.75-1.76,5.9,7.56,2.57,7.71,6.54.14,3.98-.87,7.76,7.51,6.33,8.39-1.43,22.69-8.68,22.85-4.69.17,3.99-5.28,9.33-.68,12.73,4.61,3.4,10.23,2.29,11.1,6.76.87,4.47,2.36,14.4,3.83,9.84,1.48-4.55,3.97-15.04,7.15-8.03,3.19,7.03,2.62,14.18-.42,13.07-3.03-1.1,8.5-3.33,8-19.92-.5-16.5-5.44-31.36-25.45-30.72-19.95.65-39.16,12.23-40.02,19.28-.86,7.06-2.15,32.57,2.16,47.64,4.33,15.16,10.04,22.45,17.57,21.54,7.53-.91,29.11-26.62,28.75-17.76-.37,8.88-23.73,38.37-26.31,37.46-2.58-.91-13.13,8.77-11.65,5.59,1.48-3.18-5.09-14.84-6.52-24.41-1.43-9.54,7.12-15.26-.52-8.37-7.64,6.9-44.33,9.98-44.13,19.07.2,9.12,5.76,43.34,7.06,30.69,1.29-12.6-5.14-32.65-11.95-22.89-6.83,9.78-40.62,95.81-30.71,108.53,9.97,12.79,70.58,6.44,71.21-.07.63-6.49-12.67-27.13-21.22-26.49-8.54.64-37.41,17.44-27.39,14.31,10.03-3.13,19.84-15.17,23.14-31.97,3.28-16.73-1.73-39.5-4.53-23.4-2.81,16.18-1.38,82.51,7.34,94.93,8.77,12.49,29.7,21.88,34.59,18.78,4.88-3.1,4.77-21.3,2.71-14.21-2.08,7.1-5.98,32.05-5.54,34.08.44,2.04,18.59,15.71,18.59,15.71,0,0,13.46-19.6,15.03-26.76,1.57-7.15-.67-18.31,1.16-11.73,1.83,6.6,29.42,17.04,38.26,12.85,8.84-4.19,8.88-8.79,8.84-4.19-.04,4.61-.65,17.97.71,31.36,1.37,13.46-1.14,132.96-8.16,133.48-7.01.52-58.89,2.52-55.33-1.76,3.55-4.28-.33-63.13-4.95-78.83-4.59-15.61-20.16-38.81-17.54-25.39,2.63,13.47,14.08,27.5,8.19,28.04-5.88.55-15.18,1.1-9.36,3.17,5.83,2.07,11.04-13.09,9.15,7.3-1.9,20.51-13.31,65.51-20.76,67.1-7.44,1.59-36.25-3.16-13.1-4.71,23.22-1.55,161.1.9,161.1.9,0,0,.69-80.62,2.58-99.2,1.89-18.48-1.86-29.61.02-26.35,1.88,3.27,29.52,9.65,59.17,6.8,29.76-2.86,60.17-11.69,58.18-16.3-1.99-4.6-45.66,3.02-75.94,3.26-30.14.25-41.4-1.62-42.65-7.5-1.24-5.86-4.9-64.58.05-70.4,4.94-5.82,23.55,15.06,21.05,8.67-2.49-6.37-23.45-76.86-22.84-80.62.61-3.75,71.68-13.98,74.84-7.16,3.16,6.84,8.68,52.96,8.68,52.96,0,0-23.95-36.32-28.21-28.05-4.26,8.29,15.08,23.81,15.08,23.81,0,0-26.84-27.99-25.54-18.56,1.29,9.46,13.14,20.68,13.14,20.68,0,0-27.94-21.04-18.64-9.84,9.35,11.26,23.09,21.24,23.09,21.24,0,0-25.54-18.03-17.42-4.82,8.16,13.28,30.1,25.79,36.39,28.28,6.3,2.49,17.96-15.7,17.86-22.11-.09-6.4-11.18-41.81-12.28-31.03-1.1,10.82,23.04,37.28,23.09,40.49.06,3.22,4.84,25.78-7.19,22.69-11.99-3.08-32.2-18.26-12.04-6.95,20.3,11.38,75.54,66.57,104.77,54.38,29.26-12.2,53.87-127.65,44-136.4-9.83-8.7-26.42-13.43-37.38-1.16-10.98,12.29-32.52,80.16-27.16,90.49,5.38,10.38,19.11,20.7,14.19,5.69-4.9-14.93-24.58-14.01-39.3-19.64-14.66-5.61-33.71-14.34-32.37-9.86,1.33,4.49,12.12,8.2,14.42-2.79,2.3-10.96-2.92-52.31-1.48-73.79,1.44-21.34,13.58-34.1,11.59-39.66-1.98-5.54-16.86-7.66-28.05-12.94-11.15-5.27-18.05-14.93-18.05-14.93,0,0,3.15,5.45-6.5,16.78-9.67,11.35-19.28,30.18-21.17,25.87-1.88-4.3-5.62-11.02-13-16.4-7.37-5.36-11.08-14.48-11.65-8.94-.58,5.55-2.21,40.23,1.43,33.94,3.63-6.29,13.35-15.8,15.26-7.79,1.91,8.03,4.47,18.57,4.47,18.57,0,0,11.14,5.39,11.11,2.26-.03-3.12,1.67-15.63,1.67-15.63,0,0-14.12,1.56-6.13,1.38,8-.18,10.93-12.06,16.52-7.84,5.61,4.23,11.36,17.83,13.73,10.9,2.36-6.92,8.38-16.39,2.58-31.75-5.76-15.27-8.8-13.35-10.77-22.51-1.96-9.13-3.86-11.99-2.22-16.15,1.63-4.15,7.11-25.72.37-25.52-6.73.2-8.68,17.31-12.57,14.29-3.88-3.01-14.14-20.66-13.94-24.48.2-3.81,2.21,5.66-11.89,7.28-14.08,1.61-21.95.18-24.56,3.36-2.61,3.18-2.33,15.36-4.24,12.54-1.92-2.81-11.22-15.17-6.96-24.56,4.25-9.37,7.58-6.16,11.59-12.68,4.01-6.51,6.83-10.37,12.77-9.62,5.94.75,12.6.3,18.77-.85,6.18-1.15,11.87-4.17,15.98.9,4.13,5.08,2.93,5.12,6.8,8.56,3.88,3.44,6.04,3.85,6.84,9.78.8,5.94,2.84,14.01.15,10.98-2.68-3.03-11.32-22.05-30.63-19.3-19.27,2.74-29.21,13.02-31.33,16.88-2.13,3.87-4.21,22.55-1.32,32.54,2.91,10.03,12.88,33.98,31.5,39.85,18.72,5.9,25.2-39.02,26.27-31.31,1.07,7.73-6.88,31.81-12.4,36.84-5.53,5.03-28.87-10.27-33.94-11.6-5.07-1.33-25.24,2.09-26.67,10.15-1.44,8.07-5.76,34.63-2.14,27.18,3.61-7.44,9.34-31.73,2.14-31.55-7.19.18-15.1-1.08-19.43,7.77-4.33,8.87-37.53,124.07-22.3,139.04,15.34,15.08,44.81-2.11,47.03-2.14,2.22-.03,56.25-5.34,56.25-5.34,0,0-20.18-18.03-14.18-8.21,6.03,9.85,12.02,14.38,12.02,14.38,0,0-23.9-20.31-23.86-14.21.04,6.1,11.25,16.68,11.25,16.68,0,0-21.59-16.53-21.56-10.43.03,6.12,14.24,25.9,20.95,26.59,6.71.69,35.01-6.59,33.47-9.65-1.54-3.07-19.28,12.58-11.02,15.58,8.27,3.01,42.84,2.63,42.84,2.63,0,0-14.73,66.85-16.09,77.18-1.37,10.36,6.49,23.93,9.5,21.52,3.01-2.41,9.6-98.73,15.87-87.11,6.3,11.68,9.99,6.94,10.07,10.86.08,3.92,7.63,35.43-3,37.88-10.62,2.44-13.86-7.83-10.06-7.86,3.8-.02,16.01.69,18.59,14.16,2.6,13.54-3.24,27.17,13.19,39.17,16.52,12.08,117.16,11.93,108.14-16.48-8.93-28.12-31.92-41.56-26.79-90.62,5.06-48.37,12.72-105.25,3.15-117.95-9.52-12.64-18.1-21.47-31.3-12.93-13.2,8.55-47.22,79.85-50.9,82.98-3.68,3.13-24.69,4.97-19.57-1.24,5.11-6.21,23.68-43.83,23.44-52.91-.24-9.05,7.67-20.49-.43-16.57-8.1,3.92-37,44.51-45.88,47.7-8.88,3.19-18.53,4.1-15.48,9.38,3.07,5.29,31.44,4.85,43.8-11.37,12.33-16.17,24.28-45.09,25.69-48.13,1.41-3.03-5.88,31.82,2.13,23.34,8-8.47,31.66-42.06,39.11-42.98,7.46-.91,15.05,1.55,12.05,1.61-3,.07-11.65-.87-10.51-11.37,1.13-10.47,4.75-13.91,11.99-30.42,7.22-16.45,9.53-24.24,4.67-34.76-4.83-10.47-13.37-11.32-9.62-20.17,3.74-8.83,19.17-1.65,21.83,9.58,2.68,11.28-1.25,24.99-5.61,18.12-4.35-6.85-10.38-19.48-14.2-23.02-3.82-3.53-4.68-6.78-21.36-9.91-16.62-3.12-40.55,5.19-48.02,13.37-7.48,8.2-10.78,23.59-9.41,19.54,1.37-4.05,6.39-8.55,15.04-13.89,8.65-5.33,12.85-2.21,7.05.13-12.72,5.15,3.19,13.86,10.34,17.34,1.82.88,3.97,2.25,6.76,4.87,9.51,8.94,9.09,19.27,10.47,15.92,1.37-3.35,7.01-24.09,11.74-15.04,4.76,9.08-.7,23.64-.7,23.64,0,0,7.02,9.48,10.31,7.54,3.29-1.94,17.48-21.93,2.58-43.25-14.76-21.12-53.69-21.44-64.05-11.71-10.38,9.74-7.69,14.77-7.8,26.1-.1,11.37,10.88,53.28,19.86,56.07,9,2.79,34.1-16.8,32.1-21.22-2-4.41-14.57,10.39-19.06,22.06-4.51,11.7-10.55,22.72-1.01,16.88,9.53-5.83,33.21-25.08,50.79-4.82,17.74,20.45,17.07,110.98.58,142.54-16.61,31.79-55.75,61.51-40.35,61.43,15.43-.07,41.59-5.01,31.73,1.45-9.86,6.47-36.86,8.19-30.52,13.78,6.35,5.61,39.16-10.61,39.68,3.89.51,14.57-10.82,63.79-16.32,63.78-5.49-.02-61.7-.98-62.53-3.44-.83-2.46,6.3-20.51-2.55-35.9-8.8-15.3-31.55-44.01-23.62-28.08,7.97,16.02,19.25,39.42,12.99,35.38-6.24-4.04-18.05-19.33-15.59-10.48,2.47,8.88-11.66-9.63-11.57-4,.09,5.63,5.45,43.29,5.45,43.29,0,0-46.04,9.69-46.15-.9-.11-10.56-8.22-55.09-15.15-68.59-6.9-13.44-28.78-33.77-22.71-16.51,6.11,17.37,25.18,40.42,18.32,36.44-6.84-3.97-32.54-22.94-22.73-11.88,9.86,11.12,36.14,64.49,30.09,71.79-6.06,7.31-68.53-.39-38.18-1.95,30.48-1.56,351.63-1.07,351.63-1.07"/>
</svg>