<?xml version="1.0" encoding="UTF-8"?>
<svg id="Layer_1" data-name="Layer 1" xmlns="http://www.w3.org/2000/svg" viewBox="0 0 1000 700">
  <defs>
    <style>
      .cls-1 {
        fill: none;
        stroke: #e3fac8;
        stroke-miterlimit: 2.61;
        stroke-width: 5px;
      }
    </style>
  </defs>
  <path class="cls-1" d="M66.1,548.16c37.94,0,75.87,0,94.84-.13,18.97-.13,18.97-.4,19.23-6.19.26-5.8.79-17.12,1.58-38.6.79-21.47,1.84-53.09,6.72-81.67,4.87-28.58,13.57-54.14,26.21-72.45,12.64-18.31,29.24-29.38,37.67-34.91,8.43-5.53,8.69-5.53,12.51-3.82,3.82,1.71,11.2,5.14,19.5,11.99,8.3,6.85,17.52,17.12,26.87,28.32,9.35,11.2,18.84,23.32,22.79,27.4,3.95,4.08,2.37.13,5.27-5.14,2.9-5.27,10.28-11.85,14.62-15.15,4.35-3.29,5.66-3.29,2.9-5.79-2.77-2.5-9.61-7.51-18.31-16.47-8.69-8.96-19.23-21.87-30.17-29.9-10.93-8.04-22.26-11.2-29.38-14.09-7.11-2.9-10.01-5.53-11.72-3.95-1.71,1.58-2.24,7.38-3.29,10.27-1.05,2.9-2.64,2.9-3.82,1.58-1.19-1.32-1.98-3.95-1.32-7.64.66-3.69,2.77-8.43,6.19-10.27,3.43-1.84,8.17-.79,10.93-1.45,2.77-.66,3.56-3.03,1.05-7.9-2.5-4.87-8.3-12.25-16.73-29.37-8.43-17.12-19.5-44-18.05-65.34,1.45-21.34,15.41-37.15,33.59-46.89,18.18-9.75,40.57-13.44,55.59-14.49,15.02-1.05,22.66.53,31.75,1.58,9.09,1.05,19.63,1.58,26.87,1.32,7.24-.26,11.2-1.32,13.04,1.32,1.84,2.63,1.58,8.96.13,15.94-1.45,6.98-4.08,14.62-10.14,18.97-6.06,4.35-15.54,5.4-22.39,7.51-6.85,2.11-11.07,5.27-13.44,11.86-2.37,6.59-2.9,16.6-2.24,27.66.66,11.06,2.5,23.18,2.11,30.03-.4,6.85-3.03,8.43-6.59,6.98-3.56-1.45-8.03-5.93-13.17-11.33-5.14-5.4-10.93-11.73-16.99-13.7-6.06-1.98-12.38.39-16.2,5.4-3.82,5.01-5.14,12.65-3.82,19.5,1.32,6.85,5.27,12.91,6.59,18.18,1.32,5.27,0,9.75-4.21,13.3-4.22,3.56-11.33,6.19-16.07,8.43-4.74,2.24-7.11,4.08-8.82,6.85-1.71,2.77-2.77,6.45-.53,10.27,2.24,3.82,7.77,7.77,16.99,14.1,9.22,6.32,22.13,15.02,31.88,24.9,9.75,9.88,16.33,20.95,20.55,21.34,4.21.4,6.06-9.88,7.51-16.33,1.45-6.45,2.5-9.09,4.87-12.12,2.37-3.03,6.06-6.45,7.38-11.07,1.32-4.61.26-10.41-1.32-14.89-1.58-4.48-3.69-7.64-7.24-10.93-3.56-3.29-8.56-6.72-7.38-4.61,1.19,2.11,8.56,9.75,13.97,12.25,5.4,2.5,8.82-.13,12.51-1.84,3.69-1.71,7.64-2.5,12.12-2.5s9.48.79,13.04-.4c3.56-1.19,5.67-4.35,6.46-6.85.79-2.5.26-4.35-.92-6.45-1.19-2.11-3.03-4.48-3.43-8.43-.39-3.95.66-9.48-2.5-11.85-3.16-2.37-10.54-1.58-14.49-2.17-3.95-.59-4.48-2.57-1.38-3.16,3.09-.59,9.81.2,14.03-.53,4.22-.72,5.93-2.96,6.78-4.87.86-1.91.86-3.49,1.12-4.54.26-1.05.79-1.58,3.29-3.43,2.5-1.84,6.98-5.01,5.53-9.09-1.45-4.08-8.82-9.09-13.17-14.36-4.35-5.27-5.67-10.8-5.8-14.75-.13-3.95.92-6.32,1.05-9.09.13-2.77-.66-5.93-2.63-9.22-1.98-3.29-5.14-6.72-6.98-12.52-1.84-5.8-2.37-13.96-4.24-23.35-1.87-9.39-5.08-19.99-13.91-24.21-8.83-4.22-23.26-2.04-41.68,2.34-18.42,4.38-40.81,10.97-53.72,22.29-12.91,11.33-16.33,27.4-14.49,46.76,1.84,19.36,8.96,42.02,14.09,56.31,5.14,14.29,8.3,20.22,5.16,28.43-3.14,8.21-12.58,18.69-20.1,27.51-7.52,8.82-13.11,15.97-20.38,36.61-7.27,20.64-16.2,54.77-11.19,85.54,5.01,30.76,23.98,58.16,45.72,79.5,21.73,21.34,46.23,36.62,73.21,49.13,26.98,12.51,56.43,22.26,85.55,24.24,29.11,1.98,57.88-3.82,72.79-8.69,14.91-4.87,15.96-8.83,16.62-14.23.66-5.4.92-12.25-2.11-19.23-3.03-6.98-9.35-14.09-13.96-18.05-4.61-3.95-7.51-4.74-12.64-3.82-5.14.92-12.51,3.56-25.95,3.69-13.44.13-32.93-2.24-51.5-12.12-18.57-9.88-36.22-27.27-49.13-44.65-12.91-17.39-21.08-34.78-23.05-46.37-1.98-11.59,2.24-17.39,5.53-23.32,3.29-5.93,5.66-11.99,6.21-18.55.55-6.56-.72-13.63-.46-11,.26,2.63,2.06,14.97,6.65,27.46,4.59,12.49,11.97,25.14,15.79,40.16s4.08,32.4,13.7,45.97c9.62,13.57,28.58,23.32,41.1,27.93,12.51,4.61,18.57,4.08,25.56,2.63,6.98-1.45,14.88-3.82,20.28-7.77,5.4-3.95,8.3-9.48,13.96-14.23,5.66-4.74,14.09-8.69,22.39-10.14,8.3-1.45,16.47-.39,21.87,1.32,5.4,1.71,8.03,4.08,9.88,6.72,1.84,2.63,2.9,5.53,1.97,8.04-.92,2.5-3.82,4.61-7.77,5.4-3.95.79-8.96.26-13.96-.4-5.01-.66-10.01-1.45-15.02-.26-5.01,1.19-10.01,4.35-13.7,6.45-3.69,2.11-6.06,3.16-6.98.92-.92-2.24-.39-7.77,3.42-10.41,3.82-2.63,10.93-2.37,15.54-.66,4.61,1.71,6.72,4.87,6.72,8.3s-2.11,7.11-11.06,10.41c-8.96,3.29-24.77,6.19-42.02,6.06-17.26-.13-35.96-3.29-47.29-7.9-11.33-4.61-15.28-10.67-14.23-13.96,1.05-3.29,7.11-3.82,10.41-2.37,3.29,1.45,3.82,4.87,6.98,9.75,3.16,4.87,8.96,11.2,19.23,14.88,10.28,3.69,25.03,4.74,37.28,5.14,12.25.4,22,.13,35.57-5.53,13.57-5.66,30.95-16.73,42.81-25.95,11.86-9.22,18.18-16.6,24.24-20.55,6.06-3.95,11.85-4.48,15.67-3.43,3.82,1.05,5.66,3.69,5.01,6.46-.66,2.77-3.82,5.66-6.72,6.85-2.9,1.19-5.53.66-6.19-.4-.66-1.05.66-2.63,5.93-3.69,5.27-1.05,14.49-1.58,21.08-1.84,6.59-.26,10.54-.26,12.38,0,1.84.26,1.58.79-.13,1.71-1.71.92-4.87,2.24-8.69,3.42-3.82,1.19-8.3,2.24-11.59,2.9-3.29.66-5.4.92-6.19.66-.79-.26-.26-1.05,2.77-1.71,3.03-.66,8.56-1.19,12.91-1.19s7.51.53,9.22,1.05c1.71.53,1.98,1.05.53,1.98-1.45.92-4.61,2.24-8.3,3.69-3.69,1.45-7.9,3.03-11.59,3.95-3.69.92-6.85,1.19-7.38.26-.53-.92,1.58-3.03,7.51-4.48,5.93-1.45,15.68-2.24,21.34-1.84,5.66.39,7.25,1.98,7.9,3.29.66,1.32.39,2.37-5.01,4.22-5.4,1.84-15.94,4.48-21.34,6.72-5.4,2.24-5.66,4.08-6.06,3.56-.39-.53-.92-3.42,1.58-5.66,2.5-2.24,8.03-3.82,14.09-3.95,6.06-.13,12.65,1.19,16.2,2.9,3.56,1.71,4.08,3.82,1.58,5.66-2.5,1.84-8.03,3.43-12.51,4.74-4.48,1.32-7.9,2.37-11.06,5.27-3.16,2.9-6.06,7.64-11.86,11.33-5.8,3.69-14.49,6.32-20.81,7.9-6.32,1.58-10.27,2.11-18.05,6.72-7.77,4.61-19.36,13.3-28.85,18.57-9.48,5.27-16.86,7.11-18.46,3.4-1.6-3.71,2.57-12.97,2.29-20.64-.28-7.67-5-13.74-10.18-17.45-5.18-3.71-10.81-5.06-17.89-5.4-7.08-.34-15.6.32-25.82-.26-10.22-.58-22.14-2.4-32.39-6.04-10.25-3.64-18.84-9.11-26.94-14.85-8.1-5.74-15.71-11.74-19.77-22.47-4.06-10.74-4.57-26.21-.68-37.76,3.89-11.56,12.19-19.2,18.45-32.63,6.26-13.44,10.47-32.67,12.05-51.11,1.58-18.44.53-36.09,4.74-53.48,4.21-17.39,13.7-34.51,24.24-44.26,10.54-9.75,22.13-12.12,28.98-13.96,6.85-1.84,8.96-3.16,11.2-3.82,2.24-.66,4.61-.66,7.77,3.16,3.16,3.82,7.11,11.46,12.64,26.48,5.53,15.02,12.64,37.41,17.12,58.75,4.48,21.34,6.32,41.63,6.32,54.01s-1.84,16.86-5.4,26.61c-3.56,9.75-8.83,24.76-11.99,32.4-3.16,7.64-4.22,7.9-5.93,6.32-1.71-1.58-4.08-5.01-8.17-11.86-4.08-6.85-9.88-17.12-13.3-30.82-3.43-13.7-4.48-30.82-4.61-47.42-.13-16.6.66-32.67,1.58-37.8.92-5.14,1.98.66,4.08,17.39,2.11,16.73,5.27,44.39,8.69,65.47,3.42,21.08,7.11,35.57,13.01,47.21,5.9,11.65,14,20.45,15.18,25.2,1.18,4.76-4.57,5.47-10.14,7.26-5.57,1.79-10.96,4.66-16.22,5.96-5.26,1.3-10.4,1.04-14.29-1.6-3.89-2.63-6.52-7.64-11.92-16.07-5.4-8.43-13.57-20.29-20.55-32.4-6.98-12.12-12.78-24.5-18.09-38.33-5.31-13.83-10.14-29.11-10.01-47.03.13-17.91,5.23-38.46,11.86-54.67,6.63-16.2,14.8-28.06,23.78-37.04,8.98-8.98,18.77-15.08,24.57-14.03,5.8,1.05,7.6,9.26,8.5,17.06.9,7.79.9,15.17,2.35,18.86,1.45,3.69,4.35,3.69,7.82,3.64,3.47-.05,7.51-.14,7.25,1.45-.26,1.58-4.83,4.83-8.7,8.04-3.87,3.21-7.03,6.37-4.26,13.48,2.77,7.11,11.46,18.18,18.16,32.77,6.69,14.59,11.39,32.71,11.39,51.55s-4.7,38.39-6.78,48.83c-2.09,10.44-1.56,11.75-.96,14.3.59,2.55,1.26,6.33,2.31,6.33s2.5-3.78,4.54-7.78c2.04-4,4.68-8.21,5.73-11.11,1.05-2.9.53-4.48-1.05-3.03-1.58,1.45-4.22,5.93-5.67,10.54-1.45,4.61-1.71,9.35-1.58,12.51.13,3.16.66,4.74,1.71,5.66,1.05.92,2.63,1.19,3.69,1.05,1.05-.13,1.58-.66,3.16-4.22,1.58-3.56,4.22-10.14,5.66-14.49,1.45-4.35,1.71-6.45.4-5.14-1.32,1.32-4.22,6.06-5.53,10.8-1.32,4.74-1.05,9.48-.26,12.25.79,2.77,2.11,3.56,3.56,3.69,1.45.13,3.03-.39,4.22-2.11,1.19-1.71,1.98-4.61,3.29-8.69,1.32-4.08,3.16-9.35,3.29-11.46.13-2.11-1.45-1.05-2.9,1.98-1.45,3.03-2.77,8.04-2.9,11.59-.13,3.56.92,5.66,3.03,5.66s5.27-2.11,7.24-5.66c1.98-3.56,2.77-8.56,7.9-14.49,5.14-5.93,14.62-12.78,20.29-18.7,5.66-5.93,7.51-10.93,6.85-15.54-.66-4.61-3.82-8.83-6.85-12.38-3.03-3.56-5.93-6.45-10.67-3.82-4.74,2.64-11.33,10.8-17.78,16.33-6.45,5.53-12.78,8.43-16.86,11.07-4.08,2.63-5.93,5.01-6.32,6.45-.4,1.45.66,1.98,3.82-.13,3.16-2.11,8.43-6.85,14.75-12.12,6.32-5.27,13.7-11.07,18.84-14.23,5.14-3.16,8.04-3.69,11.33-6.98,3.29-3.29,6.98-9.35,12.25-13.3,5.27-3.95,12.12-5.79,14.36-5.4,2.24.39-.13,3.03-3.56,3.95-3.43.92-7.9.13-11.46-.53-3.56-.66-6.19-1.19-7.25-3.56-1.05-2.37-.53-6.59.92-13.83,1.45-7.25,3.82-17.52,3.69-29.77-.13-12.25-2.77-26.48-5.93-41.23-3.16-14.75-6.85-30.03-9.35-37.02-2.5-6.98-3.82-5.66-6.19-4.74-2.37.92-5.8,1.45-8.83,1.19-3.03-.26-5.66-1.32-7.77-.53-2.11.79-3.69,3.42-5.14,7.25-1.45,3.82-2.77,8.83-5.4,13.17-2.63,4.35-6.59,8.04-7.24,13.04-.66,5.01,1.98,11.33,3.95,19.1,1.98,7.77,3.29,16.99,6.06,26.08,2.77,9.09,6.98,18.05,7.77,26.48.79,8.43-1.84,16.33-4.08,23.71-2.24,7.38-4.08,14.23-3.69,19.63.39,5.4,3.03,9.35,4.87,10.54,1.84,1.19,2.9-.4,3.29-2.9.4-2.5.13-5.93,1.71-7.77,1.58-1.84,5.01-2.11,7.11-4.74,2.11-2.63,2.9-7.64,2.9-15.68s-.79-19.1-1.58-27.53c-.79-8.43-1.58-14.23-1.45-19.63.13-5.4,1.19-10.41,1.05-15.54-.13-5.14-1.45-10.41-3.29-13.17-1.84-2.77-4.21-3.03-8.17-4.08-3.95-1.05-9.48-2.9-13.96-4.61-4.48-1.71-7.9-3.29-12.38-13.04-4.48-9.75-10.01-27.66-14.88-37.94-4.87-10.27-9.09-12.91-13.7-14.23-4.61-1.32-9.62-1.32-15.02-8.56-5.4-7.25-11.2-21.74-10.41-36.09.79-14.36,8.17-28.58,16.6-37.54,8.43-8.96,17.92-12.65,26.61-13.7,8.69-1.05,16.6.53,24.11,2.5,7.51,1.98,14.62,4.35,18.18,7.38,3.56,3.03,3.56,6.72,1.19,9.48-2.37,2.77-7.11,4.61-12.25,8.96-5.14,4.35-10.67,11.2-16.2,18.31-5.53,7.11-11.06,14.49-13.83,19.76-2.77,5.27-2.77,8.43-4.08,10.01-1.32,1.58-3.95,1.58-6.19.26-2.24-1.32-4.08-3.95-7.64-4.61-3.56-.66-8.83.66-9.62,4.08-.79,3.42,2.9,8.96,5.93,12.38,3.03,3.43,5.4,4.74,8.3,5.66,2.9.92,6.32,1.45,7.38,2.37,1.05.92-.26,2.24-3.27,3.14-3.01.9-7.71,1.38-12.58-.72-4.87-2.11-9.92-6.81-13.11-16.8-3.18-9.99-4.5-25.27-.94-38.71,3.56-13.44,11.99-25.03,20.95-31.22,8.96-6.19,18.44-6.98,27.53-6.59,9.09.4,17.78,1.98,23.84,4.88,6.06,2.9,9.48,7.11,12.51,11.72,3.03,4.61,5.67,9.62,7.25,13.83,1.58,4.21,2.11,7.64,2.37,10.41.26,2.77.26,4.87-1.19,6.59-1.45,1.71-4.35,3.03-5.93,5.01-1.58,1.98-1.84,4.61-.92,7.24.92,2.63,3.03,5.27,5.27,6.98,2.24,1.71,4.61,2.5,5.66,3.56,1.05,1.05.79,2.37-.53,3.82-1.32,1.45-3.69,3.03-5.27,4.48-1.58,1.45-2.37,2.77-2.5,3.95-.13,1.19.4,2.24,1.84,2.24s3.82-1.05,5.01.26,1.19,5.01-1.45,7.11c-2.63,2.11-7.9,2.63-11.33,2.24-3.42-.4-5.01-1.71-4.61-2.5.4-.79,2.77-1.06,6.19-1.98,3.42-.92,7.9-2.5,10.67-4.87,2.77-2.37,3.82-5.53,4.48-8.96.66-3.42.92-7.11.79-10.01-.13-2.9-.66-5.01-1.71-7.38-1.05-2.37-2.64-5.01-2.9-6.45-.26-1.45.79-1.71,2.11.66,1.32,2.37,2.9,7.38,2.9,14.23s-1.58,15.54-2.37,22.39c-.79,6.85-.79,11.85-1.45,15.29-.66,3.43-1.99,5.29-5.55,6.74-3.56,1.45-9.34,2.49-15.39,2.74-6.06.25-12.38-.27-17.25-1.72-4.87-1.45-8.3-3.82-8.69-5.27-.4-1.45,2.24-1.98,6.85-1.32,4.61.66,11.2,2.5,16.07,1.98,4.87-.53,8.03-3.42,11.2-5.27,3.16-1.84,6.32-2.63,9.62-1.32,3.29,1.32,6.72,4.74,9.09,7.77,2.37,3.03,3.69,5.66,8.3,15.41,4.61,9.75,12.51,26.61,17.91,42.94,5.4,16.33,8.3,32.14,11.33,44.39,3.03,12.25,6.19,20.94,8.3,27.4,2.11,6.45,3.16,10.67,3.43,14.62.26,3.95-.26,7.64-2.63,11.07-2.37,3.43-6.59,6.59-12.51,9.48-5.93,2.9-13.57,5.53-16.34,5.93-2.77.4-.66-1.45-1.84-5.8-1.19-4.35-5.66-11.2-8.54-13.98-2.88-2.79-4.15-1.51-4.94,1.91-.79,3.42-1.1,9-.23,12.48.87,3.48,2.92,4.87,7,4.87s10.2-1.39,26.17.16c15.97,1.55,41.79,6.03,63.92,8.13,22.13,2.11,40.57,1.84,49.92,1.45,9.35-.4,9.62-.92,7.11,2.37-2.5,3.29-7.77,10.41-10.67,15.81-2.9,5.4-3.43,9.09-6.72,9.88-3.29.79-9.35-1.32-21.87-3.03-12.51-1.71-31.48-3.03-50.19-3.82-18.71-.79-37.15-1.05-51.66-1.15-14.52-.09-25.1-.01-31.17-.01s-7.59-.08-6.77-1.83c.82-1.75,3.98-5.18,7.27-8.21,3.29-3.03,6.72-5.66,9.88-8.43,3.16-2.77,6.06-5.66,5.8-5.01-.26.66-3.69,4.87-7.31,8.94-3.62,4.06-7.44,7.97-9.42,11.66-1.98,3.69-2.11,7.16-2.17,9.16-.07,2-.07,2.53,3.23,2.79s9.88.26,29.51.79c19.63.53,52.3,1.58,74.56,2.37,22.26.79,34.12,1.32,41.49,1.84,7.38.53,10.27,1.05,12.65.66,2.37-.39,4.21-1.71,9.22-13.83,5.01-12.12,13.17-35.04,22-63.89,8.83-28.85,18.31-63.62,29.11-100.24,10.8-36.62,22.92-75.08,30.43-93,7.51-17.92,10.41-15.28,22.52-8.17,12.12,7.11,33.46,18.7,44.66,25.03,11.2,6.32,12.25,7.38,12.78,10.01.53,2.63.53,6.85-14.75,59.14-15.28,52.29-45.84,152.67-62.83,202.59-16.99,49.93-20.42,49.4-24.63,48.61-4.21-.79-9.22-1.84-12.38-2.77-3.16-.92-4.48-1.71-9.71-20.87-5.23-19.16-14.37-56.69-18.52-76.72-4.15-20.03-3.32-22.56-.73-28.17,2.6-5.6,6.95-14.28,9.13-18.62q2.18-4.34,7.45,11.86c5.27,16.2,15.81,48.61,21.21,64.02,5.4,15.41,5.67,13.83,8.3,5.14,2.63-8.69,7.64-24.5,19.89-65.6,12.25-41.1,31.75-107.49,41.36-141.87,9.62-34.38,9.35-36.75,1.98-42.81-7.38-6.06-21.87-15.81-30.2-20.91-8.33-5.11-10.52-5.57-23.72,32.79-13.21,38.36-37.44,115.54-48.81,153.68-11.37,38.14-9.87,37.24-5.49,48.67,4.38,11.43,11.65,35.2,14.3,47.06,2.65,11.86.68,11.8-2.74,12.59-3.43.79-8.31,2.43-11.54,4.83-3.23,2.4-4.81,5.56-3.5,12.81,1.32,7.25,5.53,18.57,9.35,24.24,3.82,5.66,7.25,5.66,27.93,6.06,20.68.4,58.62,1.19,78.9.66,20.29-.53,22.92-2.37,25.69-4.87,2.77-2.5,5.66-5.66,6.06-11.2.4-5.53-1.71-13.44-9.36-39.22-7.65-25.78-20.85-69.44-27.83-92.49-6.98-23.05-7.75-25.5-8.66-24.88-.91.62-1.96,4.31-1.44,11.29.53,6.98,2.64,17.26,7.11,33.85,4.48,16.6,11.33,39.52,14.49,52.95,3.16,13.44,2.63,17.39,1.71,20.81-.92,3.42-2.24,6.32-4.35,7.77-2.11,1.45-5,1.45-14.35,1.7-9.35.26-25.14.77-33.84.9-8.69.13-10.28-.12-12.92,4.24-2.64,4.35-6.33,13.31-8.83,21.35-2.5,8.04-3.82,15.15-1.98,18.71,1.84,3.56,6.85,3.56,32.01,3.56h115.79"/>
</svg>