<?xml version="1.0" encoding="UTF-8"?>
<svg id="Layer_1" data-name="Layer 1" xmlns="http://www.w3.org/2000/svg" viewBox="0 0 2040.53 841.41">
  <defs>
    <style>
      .cls-1 {
        fill: none;
        stroke: #7dba6a;
        stroke-linecap: round;
        stroke-linejoin: round;
        stroke-width: 5px;
      }
    </style>
  </defs>
  <path class="cls-1" d="M88.88,744.31h353.14s11.4-6.72,4.38-16.37c-7.02-9.65-20.46-5.85-18.12,5.85,2.34,11.69,27.19,5.85,23.09-5.85-4.09-11.69-5.55-33.92,2.34-38.59,7.89-4.68,71.33-20.17,91.21-22.51,19.88-2.34,32.16,8.77,34.79,1.46,2.63-7.31-2.63,15.49-9.65,13.44-7.02-2.04-48.24-.58-48.82,3.81-.58,4.38-11.69-3.51-11.69,5.85s3.51,9.94,10.52,9.64c7.02-.29,7.6-15.2-.88-16.95-8.48-1.76-50.87,5.85-54.67,12.28-3.8,6.43-9.06,32.74-10.23,26.02-1.17-6.72-3.8-22.52,6.72-28.36,10.52-5.85,38.3-16.37,66.36-17.25,28.06-.88,50.87-1.46,42.1,7.9-8.77,9.35-12.86,29.23-10.52,33.32,2.34,4.1,12.28,3.22,11.11,7.31-1.17,4.09,11.4,5.55,8.19,16.95-3.22,11.4-4.97,13.45-12.86,13.16-7.89-.29-9.36-14.91-4.09-21.63,5.26-6.72,14.62-9.07,13.45-14.91-1.17-5.85-.96-18.71,5.66-27.48,6.62-8.77,8.37-16.37,11.3-10.52,2.92,5.85,2.34,7.01,7.31,5.26,4.97-1.76,29.53.88,30.99-2.34,1.46-3.21,17.54-9.94,6.43-12.86-11.11-2.92-33.03-2.92-33.03-2.92,0,0,10.23-4.68,19-5.85,8.77-1.17,19.88-.29,19.59,1.17-.29,1.46-6.43,3.8-12.28,3.8s-24.85,4.18-27.19-5.51c-2.34-9.68,1.17-38.63-1.17-38.63s-22.8,2.05-21.63-1.16c1.17-3.22-1.17,40.93,1.46,40.63,2.63-.29,1.46-73.38,5.26-80.4,3.8-7.01,19,0,19,0,0,0,.58,39.47-2.05,35.37-2.63-4.09,11.11-57.59-2.63-61.97-13.74-4.38-25.43-1.76-32.45,2.05-7.02,3.8-56.71,49.11-59.34,40.93-2.63-8.19,51.45-30.4,54.37-43.85s-78.35,23.68-92.96.29c-1.09-1.74-2.09-3.72-3.02-5.89-11.56-27.12-11.6-85.71-18.9-112.5-7.89-28.94-62.27-145-38.88-148.21,23.39-3.22,68.41-.88,70.45,8.48,1.28,5.85,4.73,17.52,5.78,25.52.63,4.8.4,8.28-1.69,8.39-5.55.29-63.44-5.85-57.88,3.51,5.55,9.35,59.93-6.72,62.85,4.38,2.92,11.11,24.56,34.2,6.43,38.3-18.13,4.09-54.67-2.63-47.65,4.09,7.02,6.72,56.13-2.63,55.84,3.51-.29,6.14,10.23,34.2.29,35.08-9.94.88-49.4,5.55-40.93,6.72,8.48,1.17,41.22-4.39,40.63-1.75-.58,2.63-.58,3.51-.58,3.51,0,0-1.75,26.89-9.06,30.11-7.31,3.22-37.71-.58-26.02,7.02,11.69,7.6,22.22-6.14,23.09.58.88,6.72-5.85,19.59.29,39.17,6.14,19.59,23.68,27.77,14.32,31.57-9.35,3.81-31.28,6.72-28.36,5.55,2.92-1.17,34.2-20.04,79.52-20.84,45.31-.79,127.46,9.15,119.57,16.16-7.89,7.02-27.77,11.4-37.13,11.69-9.35.29-27.48-7.31-38.88-1.17-11.4,6.14-38,4.68-32.45,2.93,5.55-1.76,40.63-3.81,42.1-15.79,1.46-11.98,4.97-72.89-1.27-83.41-6.24-10.52-17.93-23-45.99-23.39-28.06-.39-129.8-1.56-128.63,5.85,1.17,7.41,23.78,3.51,42.88,2.73,19.1-.78,76.79-12.47,99,0,22.22,12.47,25.73,18.71,25.73,50.67s5.85,49.5-7.8,49.5-91.21,24.95-102.9,21.43c-11.69-3.5,31.57-29.62,67.43-29.62s125.12,26.11,144.22,6.23c19.1-19.88,13.64-28.45-6.24-12.08-19.88,16.37-18.71,31.96-23.78,61.58-5.07,29.63,17.15,68.6,16.37,76.4-.78,7.79-39.56-6.04-35.18-14.81,4.38-8.77,18.12-41.51,16.37-32.16-1.75,9.35-26.31,58.76-22.51,65.19,3.8,6.43,33.91.88,34.5-.59.58-1.46,8.45,18.71,32.29,32.74,23.84,14.04,51.61,14.62,45.18,23.68-6.43,9.07-48.82,13.74-68.7,6.72-19.88-7.02-25.73-24.56-33.33-19-7.6,5.55-9.06,7.01-21.34,2.63-12.28-4.38-17.54-4.09-14.91-12.57,2.63-8.47,16.08-39.76,21.63-34.2,5.55,5.55,32.74,2.93,34.79-4.68,2.05-7.6,3.8-21.05,16.96-18.13,13.16,2.92,28.94,8.19,43.56,0,14.62-8.19,8.96,8.47,24.56,27.18,15.59,18.71,53.01,7.99,48.72,17.35-4.29,9.35-20.85,18.32-39.95,18.7-19.1.4-31.57-11.11-37.42-8.18-5.85,2.92-14.42,3.7-23.58-4.87-9.16-8.58-17.15-18.51-15.59-21.63,1.56-3.12,8.38-22.22,20.27-19.68,11.89,2.53,38.2,2.73,34.3-15.4-3.9-18.13-9.55-60.22-8.96-78.55.58-18.32,18.71-77.76.88-88.87-17.83-11.11-95.89-21.92-93.84-23.97,2.05-2.05-11.99-16.96,4.68-13.74,16.66,3.22,116.35,1.46,135.35,21.63,19,20.17-40.34,127.17-42.39,122.78-2.05-4.38-5.26-40.05-4.09-64.6,1.17-24.56-.29-41.51-24.85-47.65-24.56-6.14-79.81-13.16-97.64-16.96-17.83-3.8-89.94-26.21-101.64-13.16-11.69,13.06-18.12,17.15-8.97,18.12,9.16.97,90.04,18.32,110.31-14.42,20.27-32.74,5.55-52.52,2.34-57.49-3.22-4.97-81.85-6.14-94.13-39.76-12.28-33.62-21.34-67.53-26.89-71.04-5.55-3.51-15.49,27.48-15.2,26.02.29-1.46-5.55-34.5,7.89-51.45,13.45-16.96,27.19-34.5,39.46-27.77,12.28,6.72,31.57,21.05,40.93,40.05,9.35,19,40.93,70.74,42.97,73.08,2.05,2.34-15.2-55.84-24.56-68.7-9.35-12.86-40.34-68.99-53.2-63.14-12.86,5.85-12.86,13.15-12.86,13.15,0,0,25.43-10.23,23.39-17.54-2.05-7.31-33.03-46.19-20.46-73.96,12.57-27.77,33.03-32.45,57.88-27.19,24.85,5.26,35.08,3.22,26.31,11.69-8.77,8.48-16.66,5.55-20.76,15.2-4.09,9.65,9.35,17.54-3.51,27.19-12.86,9.65-23.68-7.31-28.06,1.46-4.39,8.77-2.05,28.94,11.4,26.6,13.45-2.34-17.25,14.62-21.05,6.43-3.8-8.19-30.11-59.34-.58-71.62,29.53-12.28,63.14-5.55,68.99,10.82,5.85,16.37,6.72,30.99,9.36,39.76,2.63,8.77-3.8,7.89-3.51,21.63.29,13.74-2.34,17.83-13.45,17.83s-16.66,6.72-20.17,19c-3.51,12.28,3.22,7.31-.88,16.37-4.09,9.06-8.77,6.1-.58,15.18,8.19,9.08,11.99,15.22,23.97,47.96,11.99,32.74,11.99,36.25,13.74,34.79,1.75-1.46-2.63-47.07-15.49-67.82-12.86-20.76-6.72-26.02-12.86-22.22-6.14,3.8-8.48,11.4-2.92,9.65,5.55-1.75,12.28-9.06,3.22-19-9.06-9.94-11.11-14.62-24.85-23.68-13.74-9.06-14.62-17.54-21.05-12.28-6.43,5.26-23.39,18.12-7.02,35.08,16.37,16.96,34.2,61.97,40.34,81.27,6.14,19.29,5.26,26.31-8.48,30.69-13.74,4.39-2.92-26.89,22.22-17.25,25.14,9.65,102.03,3.51,102.03,19.29s-3.22,21.63-1.75,22.8c1.46,1.17-67.24,11.69-73.38,6.43-6.14-5.26,93.26-.58,93.84-8.48.58-7.89.58-26.02.58-26.02l-16.96-.88s-81.85-54.37-72.21-40.05c9.65,14.32,57.3,30.99,75.13,34.79,17.83,3.8,19.88-.88,19.29,4.39-.58,5.26,21.93-6.14,38.3,5.26,16.37,11.4,18.42,23.09,13.45,22.22-4.97-.88-32.45-13.45-27.19-7.02,5.26,6.43,15.49,4.97,11.11,7.89-4.39,2.92-33.33,2.92-34.5-.29-1.17-3.22-2.92-26.02,12.57-29.82,15.49-3.8,30.4-4.97,38.88,10.82,8.48,15.79,10.82,17.54,15.79,15.2,4.97-2.34,15.69-27.48,24.65-27.48s23.97-4.09,32.55,1.95c8.58,6.04,8.77,7.41,5.46,7.6-3.32.19-17.34-3.7-16.57-2.92.78.78,25.53,3.7,21.83,9.35-3.7,5.65-4.49,13.06-21.44,11.69-16.95-1.36-30.01,2.53-32.54-6.63-2.53-9.16,15.79-20.85,3.51-23.78-12.28-2.92-55.35-13.84-62.95-13.64-7.6.19,1.36-8.58-.97-24.36-2.34-15.79-5.85-45.21-11.99-56.91-6.14-11.69-11.4-26.6-22.22-24.85-10.82,1.75.29,123.07.29,119.27s-16.66-124.83-1.75-129.8c14.91-4.97,50.57-16.08,54.67-21.63,4.09-5.55,28.65,112.84,44.14,137.4,15.5,24.56-.88-143.83,6.14-138.57,7.01,5.26,35.96,13.74,24.85,22.8-11.11,9.06-25.72,15.2-11.11,22.22,14.62,7.02,34.49-17.83,16.66,16.37-17.83,34.2-23.97,89.75-28.94,89.75s-67.53-102.9-66.07-104.07c1.46-1.17,28.94-2.05,15.79-7.89-13.15-5.85-34.2-13.16-22.51-20.17,11.69-7.02,23.39-18.12,26.02-23.39,2.63-5.26,7.02-17.83,3.22-27.77-3.8-9.94-8.48-23.09,1.75-17.54,10.23,5.55,15.49,10.23,15.49,7.89s11.69-6.72,8.48-23.68c-3.22-16.96,10.82-7.89,17.83-16.96,7.02-9.06,14.62-11.11-3.22-17.25-17.83-6.14-37.13-3.8-47.94,5.26-10.82,9.06-19.88,18.42-23.97,46.77-4.09,28.36-1.17,50.87-10.52,55.54-9.35,4.68,28.06,2.05,30.99-14.03,2.92-16.08-14.32-56.71,7.31-68.99,21.63-12.28,16.37-22.51,37.42-18.71,21.05,3.8,23.39,18.42,26.02,30.11,2.63,11.69,9.94,12.86,7.31,27.77-2.63,14.91,0,26.02-8.18,26.89-8.19.88-19.01-8.19-20.76,3.22-1.75,11.4-.58,43.56-8.48,42.68-7.89-.88-33.03-34.2-33.03-30.99s17.25,47.07,18.71,45.9c1.46-1.17,12.28-9.06,14.91-9.06s9.06,9.35,9.65,5.85c.58-3.51-.58-47.07,9.65-42.1,10.23,4.97,25.14,7.31,42.68,13.45,17.54,6.14,26.01,106.7,31.28,114.89,5.26,8.19,7.89-9.94,7.6,2.92-.29,12.86-.29,15.2,18.42,11.11,18.71-4.09,22.51,1.17,25.73-5.55,3.21-6.72-26.61-11.11-26.61-11.11,0,0-6.72,2.63-3.8-4.09,2.92-6.72-5.85-.88-9.94,6.14-4.1,7.02-14.91,14.32-9.94,23.09,4.97,8.77,25.14-1.46,23.97.88-1.17,2.34-4.38,14.32-16.66,17.25-12.28,2.92-38.29,1.46-38.29,1.46,0,0-9.65,11.4-8.48,12.28,1.17.88,102.61,0,103.48-.88.88-.88,49.12-108.16,44.73-107.87-4.38.29-52.03,97.93-52.03,97.93,0,0-54.38,1.46-62.57.29-8.18-1.17-28.06-5.55-28.06-18.71s-9.06-42.68-6.14-54.96c2.93-12.28,4.68-59.93,4.68-59.93,0,0,8.19,41.8,1.17,59.64-7.02,17.83-17.54,32.74-14.91,43.56,2.63,10.82,23.39,28.65,21.04,31.57-2.34,2.92,142.46-.97,142.46-.97l21.63,10.52,124.44-5.46-19.3-5.85-131.25,2.92,26.31,14.32,115.76-7.02-16.66-8.77s27.78,2.44,30.89-3.8c3.12-6.24,15.59-47.75,11.88-59.64-3.7-11.89-4.29-18.51-6.23-13.06-1.95,5.46-25.53,56.13-41.9,59.83-16.37,3.7-31.58,1.56-29.04-14.42,2.54-15.98,20.86-31.57,20.86-31.57,0,0-6.43,26.89,6.82,21.83,13.25-5.07,29.63-26.89,27.09-40.15-2.53-13.25,1.76-23-3.31-24.56-5.07-1.56-29.43,7.41-23.39,8.19,6.04.78,18.13-13.84,10.71-11.11-7.41,2.73-25.72-2.73-24.75,18.9.97,21.63,11.5,11.11,10.92,23.97-.59,12.86-6.63,16.37,3.31,15.4,9.94-.97,31.38-26.9,30.21-36.25-1.16-9.35-11.11-28.84.98-51.45,12.08-22.61,16.37-24.95,20.46-26.12,4.09-1.17,37.22-11.11,43.36-7.31,6.14,3.8,11.11-5.26,14.91,5.85,3.8,11.11,3.5,21.34,21.34,8.48,17.83-12.86,20.75-16.96,22.8-26.89s17.64-33.13,4.38-31.57c-13.25,1.56-15.98,10.52-15.98,10.52,0,0,13.65-46.77,0-47.55-13.64-.78-45.21-3.12-47.94-9.74-2.73-6.63-1.17-17.15,3.12-15.98,4.29,1.17,13.64-7.8,20.66-7.41,7.02.39,48.33,14.03,55.35,25.34,7.02,11.3-3.9,43.27-3.9,43.27,0,0,3.12-36.25-14.42-42.88-17.54-6.63-42.87-16.76-53.01-3.51-10.13,13.25-11.69,30.4-9.75,38.98,1.95,8.58-8.18,22.22-5.06,30.4,3.12,8.19-2.93,15.01,3.12,18.51,6.04,3.51,12.28,3.51,10.32,15.01-1.95,11.5-12.27,87.51-11.5,105.63.78,18.12-3.12,17.54-3.12,16.37s-15.59-8.97-14.04-14.81c1.56-5.85-6.23-65.87,7.02-79.51,13.25-13.64-2.73-21.83-7.02-22.61-4.29-.78,20.66-11.69,22.22-11.69s-1.95,33.13,9.74,28.84c11.69-4.29,8.58-10.91,11.69-4.29,3.12,6.63,8.96,10.91,12.08,12.86,3.13,1.95-13.64,101.73-14.81,101.34-1.16-.39-17.14-2.34-16.37-9.74.78-7.41,13.06-100.17,20.07-97.25,7.02,2.92,13.16,2.92,14.62-.58,1.46-3.51,4.97-6.43,4.97-6.43,0,0-15.49-8.77-13.45-5.85,2.05,2.92,16.08,17.83,19.88,14.03,3.8-3.8,20.17-38.88,17.25-44.14-2.93-5.26,25.14,24.26,14.62,29.82-10.53,5.55-26.61,8.48-14.04,12.57,12.57,4.09,15.78-3.22,1.46,13.16-14.33,16.37-44.15,91.21-44.44,90.33-.29-.88,30.99-136.81,45.6-135.94,14.62.88,54.28,14.91,58.18,28.16,3.89,13.25-2.34,106.8-3.9,107.58-1.56.78-49.89,9.74-49.89,3.12s23.39-97.45,25.72-91.6c2.34,5.85-5.45,90.04-29.23,93.16-23.77,3.12-44.72,3.41-58.76.49-14.03-2.92-31.86-24.26-34.79-17.25-2.92,7.02,6,19.59,8.92,19.59s-12.13-20.76-12.28-25.58c-.14-4.82-10.37-7.6-13.88-1.17-3.5,6.43,5.81,32.16,13.85,38.88,8.04,6.72,18.01,13.16,22.54,11.4,4.53-1.75-47.5.29-47.5.29,0,0,42.98,10.38,54.81,0,11.84-10.38,22.07-36.98,40.2-29.09,18.13,7.89,1.9,6.14,8.33,22.36,6.43,16.22-3.5,10.08-9.21,9.94-5.7-.15-38.74,7.02-32.45,0,6.28-7.02,14.23-8.04,22.8-11.35,8.58-3.31,6.62-3.9,15,6.24,8.39,10.13,59.25,9.35,69.19,9.74,9.94.39,36.54,11.89,59.35-.97,22.8-12.86,108.46-64.9,88.58-67.82-19.87-2.92-74.25,47.94-62.56,71.33,11.69,23.39,2.33,78.35,14.03,79.91,11.69,1.56,113.82,9.74,111.48-4.29-2.34-14.03-16.76-53.79-15.21-77.96,1.56-24.17,1.56-116.93-12.08-139.93-13.64-23-9.75-37.42-27.29-16.37-17.54,21.05-97.05,111.09-109.92,112.65-12.86,1.56-37.42,3.51-33.52,3.9,3.9.39,35.47,10.13,32.75-12.86-2.73-23-10.53-30.4,1.16-33.52,11.69-3.12,30.02-22.22,33.92-4.68,3.89,17.54-.59,28.84-.88,27.67-.29-1.17-10.82-34.2-5.26-52.62,5.55-18.42,23.39-29.82,19-43.56-4.38-13.74-5.85-23.09-10.52-18.71-4.68,4.38-1.17,12.57-5.26,12.28-4.09-.29-20.17-8.19-20.46,10.23-.29,18.42,7.01,5.55-.88,32.45-7.9,26.89-12.28,47.94-.88,41.22,11.4-6.72,27.48-6.72,29.53-3.51,2.05,3.22,19.87-47.94,35.67-64.02,15.78-16.08,36.25-27.48,35.67-34.79-.59-7.31-4.78,7.99-11.01-11.5-6.23-19.49-25.73,6.24-21.44-.78,4.29-7.02,14.42-32.35-.39-27.67-14.81,4.68-23,6.63-22.22-4.29.78-10.91-4.29-30.01-14.04-31.18-9.75-1.17,30.02-23,49.12-14.42,19.1,8.57,29.62,5.65,37.22,29.04,7.6,23.39,18.13-4.09,28.06,7.02,9.94,11.11,17.54,114.3,16.08,120.73-1.46,6.43-6.14-1.46-9.06-4.39-2.93-2.92-10.23,16.96-11.11,5.85-.88-11.11,3.5-91.5-13.74-93.84-17.25-2.34-19.88,23.09-26.89,15.49-7.02-7.6,16.08-41.51-5.26-58.47-21.35-16.96-57.6-13.45-64.03-1.17-6.42,12.28-5.85,20.76-11.69,32.16-5.85,11.4-3.5,12.86.29,18.12,3.81,5.26-2.04,30.4,14.62,30.4s22.22,5.26,24.85,17.25c2.63,11.99,46.48-35.08,52.03-23.97,5.55,11.11-.59,40.63,4.97,53.79,5.55,13.16,34.59,63.63,7.7,82.34-26.89,18.71-24.17,25.73-8.96,47.16,15.2,21.44,29.62,51.45,10.52,55.74-19.1,4.29-157.18-9.55-171.21-10.13-14.04-.58-7.9-27.19-7.9-27.19,0,0,28.94,3.51,29.23-8.77.29-12.28-3.8-14.32-3.8-14.32,0,0-46.49,9.94-106.12,9.36-59.64-.58-189.44,7.02-270.7,6.43-81.27-.58-292.92-1.75-302.86-4.68-9.94-2.92-44.05-3.31-44.05,7.21s189.82,13.25,190.21,17.54c.4,4.29-18.71,54.18-17.93,71.33.78,17.15-17.15,24.17-16.76,11.69.39-12.47-33.91-49.5-44.05-49.89-10.13-.39-43.66,1.95-47.55-4.68-3.9-6.63-3.51-16.08,9.35-12.57,12.86,3.51,27.19-1.75,20.76-3.22-6.43-1.46-31.28,4.09-31.28-2.63s1.75-13.15,2.63-13.45c.88-.29,33.03,0,33.33,3.22.29,3.22-7.31,31.28-1.75,29.82,5.55-1.46,56.71-26.6,78.64-29.23,21.92-2.63,73.08-6.14,84.77,3.51,11.69,9.65,14.91,95.59,18.13,91.21,3.22-4.38,9.65-87.41,2.93-91.79-6.72-4.39-23.68-3.51-20.17-1.46,3.51,2.05,16.08-3.22,16.66,7.89.59,11.11-2.63,105.53-2.04,107.58.59,2.05-.29,86.92,14.13,111.87,14.42,24.95,26.12,42.87,15.59,42.1-10.52-.78-17.54,3.89-27.28-6.24-9.75-10.13-31.19-49.89-23.39-55.74,7.79-5.85-12.86-77.95-17.94-91.6-5.06-13.64,3.51-76.79-14.81-81.85-18.32-5.07-32.74,6.63-38.97,22.61-6.24,15.98,1.56,25.34,5.45,33.13,3.9,7.8,3.9,17.93,3.9,17.93l-52.62,1.95s-8.96-10.91,9.35-10.91,39.75-9.18,38.59,0c-1.16,9.18-2.73,31.96,3.89,51.06,6.63,19.1-9.26,79.12-13.6,81.85-4.33,2.73-9.88,8.38-13.1,7.21-3.22-1.17-7.31-4.97-19.59,4.39-12.28,9.35-15.2,17.54-14.91,20.75.29,3.21-9.65-1.76-8.77,3.5.88,5.26,12.86,14.91,12.57,6.72-.29-8.18-7.31-11.11-10.23-12.57-2.92-1.46,0-13.15,9.94-20.75,9.94-7.6,26.31-10.82,20.46-10.82s-41.82,10.01-44.73,15.2c-2.91,5.2-2.05-6.43-.58-10.52,1.46-4.09,40.05-12.28,49.99-12.28s1.46-52.33,6.43-51.45c4.97.88,20.46,1.17,20.46-.88s3.22-36.25-.59-35.96c-3.8.29-19.49-.39-17.73,0,1.75.39,6.53,4.09,6.24-4-.29-8.09-.58-19.29-.58-19.29,0,0,11.89-1.75,11.69.49-.2,2.24-.09,26.31-1.46,26.31s-16.17-4.68-16.47,1.46c-.29,6.14.39,37.22,3.22,37.81,2.83.59,19.1-9.64,18.22-3.21s-1.95,40.14-1.95,40.14c0,0-12.67,25.34-11.11,42.3,1.56,16.95,11.88,24.95,23,21.24,11.11-3.7,13.25-12.48,7.99,1.95-5.27,14.42-7.22,23.97-16.18,18.9-8.96-5.06-19.49-17.34-17.15-22.99,2.34-5.66,28.06,2.53,30.99-3.31,2.92-5.85-6.63-31.18-2.34-42.1,4.29-10.91,27.19,6.34,30.11,8.67,2.93,2.34,13.54,4.78,13.54,4.78,0,0-12.67-12.08-20.66-12.08s10.72,7.79,11.11,19.87c.39,12.08-12.28,5.26-11.11,14.42,1.17,9.16,11.5,13.45,14.23,9.55,2.73-3.9,2.73-13.25-.19-14.61-2.93-1.37-8.77-1.37-11.89-7.6-3.12-6.23-14.81-14.42-20.86-16.18-6.04-1.75.4-29.62,11.31-49.5,10.92-19.87,16.37-79.51,14.42-93.93-1.95-14.42,21.04,51.45,23.77,77.57,2.73,26.12-6.23,37.81-12.08,47.56-5.85,9.74,8.19,30.79,8.96,44.43.78,13.65,5.07,26.5,7.41,21.83,2.34-4.68-8.18-44.04,2.73-30.01,10.91,14.03,3.5,38.2,23,38.59,19.49.39,51.45-3.12,44.43-12.48-7.02-9.35-17.93-15.97-14.03-9.35,3.89,6.63,43.65,6.63,50.08,1.95,6.43-4.68-1.16-274.21-1.16-274.21,0,0-77.18,1.75-78.35,0-1.17-1.75,81.07-4.48,101.54-1.36,20.46,3.12,20.46-2.53,20.46,13.06s-.19,17.35-.19,17.35l1.56,245.95s5.85,16.37-2.73,18.32c-8.58,1.95-30.79,4.29-37.03-3.12-6.24-7.41-1.17-12.08.78-9.74,1.95,2.33,5.07,8.18,21.05,8.18s22.6-10.91,22.6-10.91l116.93,1.75,23.39,49.7-326.24-3.5s21.04-43.85,21.04-42.1-11.11,35.67-11.11,35.67l303.44,2.33-17.54-36.25-105.83-2.92s28.66-23.97,28.66-18.71-5.27,7.6,11.11,7.6,25.14,1.76,25.14-13.06-3.5-28.45-6.23-28.45-19.88,10.13-27.67,1.56c-7.79-8.58-7.02-4.29-23,3.12-15.98,7.41-18.7,14.04-9.74,10.13,8.96-3.9,22.99-12.86,21.83-26.12-1.17-13.25-3.9-22.6-7.41-20.27-3.51,2.34-22.61-52.22-18.71-70.94,3.89-18.71-13.65-99.4,1.95-106.8,15.59-7.41,69.38-7.8,90.43-16.37,21.04-8.58,35.86,5.85,40.73.58,4.87-5.26,10.92-9.94,10.92-9.94l9.94-.2s-6.23,11.11-5.45,15.01c.78,3.9,13.05,3.51,13.05,3.51,0,0,9.94-2.53,12.47-11.69,2.54-9.16,8.39-9.74,15.59-7.99,7.22,1.75,14.23,13.64,34.3,27.87,20.07,14.23,6.04,20.66,14.61,15.98,8.58-4.68,35.86-31.57,31.96-34.3-3.9-2.73-6.62-8.58-17.93-10.52-11.31-1.95,19.1,14.42,26.89,14.81,7.8.39,1.08-18.9,1.08-18.9,0,0-131.85,6.43-167.22,7.02-35.37.58-41.22,10.83-43.55,11.41-2.34.58,33.62-7.9,15.78-9.95-17.83-2.05-99.69-.58-99.69.88s2.05,282.79,6.72,280.06c4.68-2.73,17.93-9.36,28.84-35.48,10.92-26.11,40.15-2.33,39.37-15.2-.78-12.86-6.62-35.47-9.74-34.69-3.12.78-37.81,3.51-21.44,7.02,16.37,3.51,27.67,2.73,25.73-12.86-1.95-15.59-11.31-112.64-23.39-121.22-12.09-8.58-36.64-19.88-21.83-4.68,14.81,15.2,38.58,15.59,52.62,14.03,14.03-1.56,68.99-5.46,70.16-4.29,1.17,1.17,10.52,19.88,7.79,25.73-2.73,5.85-93.16-1.17-95.89-7.02-2.72-5.85-4.28-10.52,3.51-10.52s90.82,8.96,87.7-15.2c-3.12-24.17-6.63-43.27,12.86-44.82,19.49-1.56,38.97-19.49,54.95-7.02,15.98,12.47,23,16.76,26.9,35.47,3.9,18.71-29.23,28.45-30.79,28.45s-9.36,17.93,3.5,14.03c12.86-3.9,31.19-3.9,30.02-14.42-1.17-10.52-3.12-7.8-17.54-2.73-14.42,5.07-15.98,2.34-17.94,22.22-1.95,19.88-13.64,104.85-23.77,110.7-10.13,5.85-22.02,2.73-25.14,8.38-3.12,5.66-9.55,10.72-12.67,24.37-3.12,13.64-2.73,9.35-7.21,15.59-4.49,6.23-2.93,15.01,1.56,12.67,4.48-2.33,8.45-9.68,4.48-12.47-3.96-2.79-7.99-3.7-7.01-6.63.97-2.92,1.36-14.23,3.5-19.29,2.14-5.07-58.85,1.75-59.64,1.95-.78.2-9.94-6.23-7.99-7.21,1.95-.98,54.96-6.83,62.57-3.9,7.6,2.92,7.7,4.97,8.86-2.63,1.17-7.6-2.04-64.9,4.68-60.8,6.72,4.09,8.77,0,8.77-2.05s-5.55-57.01-5.55-57.01c0,0-2.43,54.8.59,57.59,3.01,2.78,4.38,15.78,5.85,26.89,1.46,11.11,1.46,11.99,1.46,11.99,0,0-9.07,33.91-2.05,35.08,7.02,1.17,26.89,2.34,30.7,8.77,3.8,6.43,10.23,11.99,13.16,7.6,2.92-4.39-13.45-15.79-13.45-15.79l18.42,4.38,3.5-6.14-26.6-6.42s-2.05,10.82,4.09,30.1c6.14,19.3-5.7,39.98-18.27,45.82-12.57,5.85-22.71,2.63-26.5-.59-3.8-3.21-.54-22.43,4.43-31.2,4.97-8.77,5.85-33.91,5.85-33.91,0,0-.78,33.13-8.19,54.95-2.71,7.99,8.04,10.04,15.3,11.99,4.71,1.27,15.32,5.14,24.17-1.46,4.92-3.68,14.52-21.24,12.56-28.07-1.91-6.7-26.32,35.1-12.67,34.21,14.68-.97,37.2-3.16,38.98-6.72,3.12-6.23,23.77-42.3,23.58-32.94-.2,9.35-6.24,37.61,0,37.61s4.68-4.29,9.74-12.86c5.07-8.58,11.5-53.79,6.82-55.74-4.42,2.48-48.92,49.89-54.37,45.21-5.46-4.68-11.89-13.25-8.77-13.64,0,0,14.04-3.51,29.23-38.98,15.21-35.47,21.44-98.22,22.61-95.49,1.16,2.72-10.92-67.44-5.85-78.74,5.06-11.3,38.58-40.54,45.99-37.42,7.41,3.12-26.12-1.17-15.98,32.35,10.13,33.52,3.12,67.24,33.52,78.15,30.4,10.92,102.03-28.36,147.63-5.55,45.6,22.8,54.38,23.68,62.26,3.51,7.9-20.18,22.22-123.66,38.01-154.65,15.78-30.99,40.34-64.9,27.48-78.35-12.86-13.45-56.13-19.29-61.97-5.26-5.85,14.03-8.19,18.71-8.19,18.71,0,0-8.18,12.28,10.52,12.28s39.18,5.26,30.99,8.77c-8.18,3.51-50.86-8.77-50.86-2.34s-28.65,38-5.26,40.93c23.39,2.92,47.36,1.75,38.58,7.02-8.77,5.26-46.19-8.19-46.19,0s-3.5,30.99,6.43,32.16c9.94,1.17,38.58,1.18,33.91,6.73-4.68,5.55-35.67,0-35.67,0,0,0,1.17,34.78,9.36,36.54,8.18,1.75,19.87,5.26,15.2,5.85-4.68.58-22.22,1.17-22.22,1.17,0,0-14.04,33.91-4.1,36.83,9.95,2.92,23.39,11.69,21.64,11.69s-25.14-4.68-25.14-4.68c0,0-30.99,15.79-36.25,16.96-5.26,1.17,21.05-5.85,30.4-37.42,9.35-31.57,19.3-52.62,28.06-49.7,8.77,2.92,40.34,1.75,42.68-2.92,2.34-4.68-152.01-14.62-165.46,4.68-13.44,19.29-20.46,91.21-14.03,101.14,6.43,9.94,133.3,23.39,138.56,14.62,5.26-8.77,12.86-28.65,9.94-26.89-2.92,1.75-5.26,28.07-43.85,23.97-38.59-4.09-80.68-8.77-88.29-11.69-7.6-2.92-11.11-35.08-8.19-47.94,2.93-12.86,3.51-47.94,16.37-50.87,12.86-2.92,86.54-7.6,90.63-3.51,4.09,4.09-9.16,75.03-47.36,83.22-38.2,8.19-145.78-33.13-146.17-5.07-.39,28.06-4.29,90.82.39,120.84,4.68,30.01-23.77,81.46-33.52,80.3-9.74-1.17,5.46-46.77,1.95-67.44-3.51-20.66-19.49-94.02-14.82-100.56,1.95-2.73,6.97,49.23,13.26,68.21,5.21,15.74,7.79,49.89,4.28,64.31-3.68,15.16-9.74,32.36-20.26,38.21-10.53,5.85-27.67,10.52-12.86,16.76,14.81,6.23,53.4,5.06,53.4-2.73v-9.75s-5.45-23.77,12.09-35.08c17.54-11.3,14.57-27.1,5.45-31.57-9.11-4.47-9.74-8.19-.78-7.41,8.96.78,83.8,10.13,85.36,11.3,1.56,1.17-2.73-43.65,1.17-42.87,3.9.78,2.34-5.06.78-9.35s-2.34-35.08,1.16-33.92c3.51,1.17,8.19-1.16,8.19-6.23s-3.5-12.86-4.68-12.86-51.84,1.56-53.79-3.12c-1.95-4.68-32.74-11.3-32.35-16.76.39-5.46,54.57-7.41,56.91-3.12,2.33,4.29,3.89,6.23,3.89,6.23,0,0,10.51,8.62-15.59,7.79-26.1-.83-10.92-4.29-.39-2.73,10.52,1.56,37.41,1.56,37.41,8.58s-1.56,15.59,1.17,17.15c2.73,1.56,15.98,3.9,17.15,7.41,1.17,3.5-1.56,39.46-1.56,39.46,0,0-14.62,3.51-14.62.59s18.71-3.5,18.71,2.05,3.21,46.48,3.21,46.48c0,0-14.83,8.51-26.6.88-11.77-7.63-47.07-.88-48.82-.59-1.75.29-29.82-7.9-26.89-8.19,2.92-.29,33.03,3.81,19.87,9.94-13.15,6.14-26.6,15.78-29.23,24.26-2.63,8.47-15.2,14.61-14.32,24.55.88,9.94,9.94,16.67,12.86.59,2.92-16.08-7.6-19.87,4.97-24.85,12.57-4.97,41.51-11.4,57.88-14.03,16.37-2.63,17.25-2.63,17.25-2.63,0,0-2.92,4.68,6.72,5.85,9.64,1.17,17.54,1.46,18.13-2.04.59-3.51,24.27,12.86,20.17,23.68-4.09,10.82-1.75,18.42,4.97,18.42s13.16,2.33,15.79,16.37c2.63,14.03-8.77,16.08-16.08,15.2-7.31-.88-14.04-13.45-6.72-21.34,7.3-7.9,16.37-6.72,16.08-19.3-.29-12.57-19.59-37.13-20.76-38.88-1.16-1.76-5.94-13.06-.48-11.89,5.46,1.17,118.1,12.48,120.44,25.33,2.34,12.86,7.8,20.27-6.23,8.97-14.03-11.31-79.91-17.94-80.68-13.65-.78,4.29,2.33,18.91,11.69,15.01,9.35-3.9,11.31-9.23,7.21-12.67-4.09-3.44-43.85-5.66-43.46-6.43.39-.78-11.69-11.69,7.79-7.6,19.49,4.09,85.75,7.99,94.53,17.35,8.77,9.35-1.76,15,7.6,18.51,9.36,3.5,12.48,10.13,7.8,15.59-4.68,5.46-23,1.56-16.76-6.43,6.23-7.98,12.08-16.17,19.49-5.65,7.41,10.52,2.14,15.01,2.14,15.01h345.14"/>
</svg>