<?xml version="1.0" encoding="UTF-8"?>
<svg id="Lager_1" data-name="Lager 1" xmlns="http://www.w3.org/2000/svg" viewBox="0 0 1400 786.6">
  <defs>
    <style>
      .cls-1 {
        fill: none;
        stroke: #24524b;
        stroke-miterlimit: 10;
        stroke-width: 3px;
      }
    </style>
  </defs>
  <path class="cls-1" d="M1209.07,383.62v315.76h-73.73s-.72-145.95-.18-165.71"/>
  <line class="cls-1" x1="830.49" y1="354.7" x2="831.32" y2="542.09"/>
  <line class="cls-1" x1="678.47" y1="353.53" x2="678.47" y2="541.61"/>
  <line class="cls-1" x1="830.05" y1="95.09" x2="830.88" y2="280.66"/>
  <path class="cls-1" d="M168.35,287.28h-62.76"/>
  <rect class="cls-1" x="167.75" y="93.45" width="967.58" height="447.31"/>
  <path class="cls-1" d="M1133.69,354.38c-62.13-1.07-764.63,0-764.63,0,0,0,.84,176.11,0,187.71"/>
  <path class="cls-1" d="M166.2,295.5c-14.39.42-44.31,0-44.31,0,0,21.69,19.63,45.76,45.71,45.76"/>
  <path class="cls-1" d="M292.01,474.51h75.39"/>
  <path class="cls-1" d="M106.42,265.74c-.62,16.99-.83,77.87-.83,105.21"/>
  <path class="cls-1" d="M1294.41,279.2v102.1h-160.72"/>
  <path class="cls-1" d="M842.78,280.78c.45-15.46,0-49.1,0-49.1,23.3,0,49.15,21.08,49.15,49.1"/>
  <path class="cls-1" d="M1133.69,295.58c15.46.45,49.1,0,49.1,0,0,23.3-21.08,49.15-49.1,49.15"/>
  <path class="cls-1" d="M843.73,353.71c.45,15.46,0,49.1,0,49.1,23.3,0,49.15-21.08,49.15-49.1"/>
  <path class="cls-1" d="M770,353.71c.45,15.46,0,49.1,0,49.1,23.3,0,49.15-21.08,49.15-49.1"/>
  <path class="cls-1" d="M661.49,353.71c-.45,15.46,0,49.1,0,49.1-23.3,0-49.15-21.08-49.15-49.1"/>
  <path class="cls-1" d="M688.8,280.78c.45-15.46,0-49.1,0-49.1,23.3,0,49.15,21.08,49.15,49.1"/>
  <line class="cls-1" x1="677.64" y1="95.09" x2="678.47" y2="280.66"/>
  <line class="cls-1" x1="523.16" y1="95.09" x2="523.99" y2="280.66"/>
  <path class="cls-1" d="M389.22,280.78c.45-15.46,0-49.1,0-49.1,23.3,0,49.15,21.08,49.15,49.1"/>
  <path class="cls-1" d="M533.9,280.78c.45-15.46,0-49.1,0-49.1,23.3,0,49.15,21.08,49.15,49.1"/>
  <path class="cls-1" d="M378.64,95.09l.83,185.69s914.85-1.25,914.94,0"/>
  <path class="cls-1" d="M167.23,349.47h-61.64"/>
  <path class="cls-1" d="M368.63,412.35h-78.07c-.17,1.28.01,136.44,0,128.41"/>
  <path class="cls-1" d="M290.25,467.23c-12.15-.33-37.41,0-37.41,0,0-17.28,16.57-36.45,38.6-36.45"/>
  <path class="cls-1" d="M288.34,531.01c-12.15-.33-37.41,0-37.41,0,0-17.28,16.57-36.45,38.6-36.45"/>
  <path class="cls-1" d="M348.08,502.95h20.55v25.06h-20.55c-6.62,0-12-5.38-12-12v-1.06c0-6.62,5.38-12,12-12Z"/>
  <path class="cls-1" d="M348.08,435.98h20.55v25.06h-20.55c-6.62,0-12-5.38-12-12v-1.06c0-6.62,5.38-12,12-12Z"/>
  <path class="cls-1" d="M313.91,468.83h10.96v26.36h-10.96c-2.24,0-4.05-1.82-4.05-4.05v-18.25c0-2.24,1.82-4.05,4.05-4.05Z" transform="translate(-164.64 799.38) rotate(-90)"/>
  <path class="cls-1" d="M313.91,407.09h10.96v26.36h-10.96c-2.24,0-4.05-1.82-4.05-4.05v-18.25c0-2.24,1.82-4.05,4.05-4.05Z" transform="translate(-102.91 737.64) rotate(-90)"/>
  <g>
    <circle class="cls-1" cx="315.25" cy="108.61" r="5.07"/>
    <circle class="cls-1" cx="315.25" cy="126.84" r="5.07"/>
    <circle class="cls-1" cx="298.42" cy="108.61" r="5.07"/>
    <circle class="cls-1" cx="298.42" cy="126.84" r="5.07"/>
  </g>
  <g>
    <rect class="cls-1" x="390.6" y="540.82" width="46.39" height="7"/>
    <rect class="cls-1" x="450.48" y="540.82" width="46.39" height="7"/>
    <rect class="cls-1" x="543.03" y="540.82" width="46.39" height="7"/>
    <rect class="cls-1" x="609.26" y="540.82" width="46.39" height="7"/>
    <rect class="cls-1" x="699.53" y="540.82" width="46.39" height="7"/>
    <rect class="cls-1" x="765.87" y="540.82" width="46.39" height="7"/>
    <rect class="cls-1" x="851.2" y="540.82" width="46.39" height="7"/>
    <rect class="cls-1" x="918.05" y="540.82" width="46.39" height="7"/>
    <rect class="cls-1" x="1002.04" y="540.82" width="46.39" height="7"/>
    <rect class="cls-1" x="1072.39" y="540.82" width="46.39" height="7"/>
  </g>
  <g>
    <rect class="cls-1" x="390.6" y="86.21" width="46.39" height="7"/>
    <rect class="cls-1" x="456.88" y="86.21" width="46.39" height="7"/>
    <rect class="cls-1" x="543.85" y="86.21" width="46.39" height="7"/>
    <rect class="cls-1" x="1003.63" y="86.21" width="46.39" height="7"/>
    <rect class="cls-1" x="919.37" y="86.21" width="46.39" height="7"/>
    <rect class="cls-1" x="849.57" y="86.21" width="46.39" height="7"/>
    <rect class="cls-1" x="767.18" y="86.21" width="46.39" height="7"/>
    <rect class="cls-1" x="697.94" y="86.21" width="46.39" height="7"/>
    <rect class="cls-1" x="610.96" y="86.21" width="46.39" height="7"/>
    <rect class="cls-1" x="1072.39" y="86.21" width="46.39" height="7"/>
  </g>
  <path class="cls-1" d="M326.73,94.34c0,15.59,0,31.17,0,46.76"/>
  <path class="cls-1" d="M286.93,95.26c0,15.59,0,31.17,0,46.76"/>
  <polyline class="cls-1" points="216.81 93.98 216.81 141.1 379.44 141.1"/>
  <path class="cls-1" d="M1279.41,280.78c0,37.47-.09,99.37,0,100.54"/>
  <path class="cls-1" d="M1263.76,278.76c0,37.47-.09,103.37,0,104.54"/>
</svg>